<svg xmlns="http://www.w3.org/2000/svg" viewBox="0 0 557.95 692.34">
    <title>Asset 1</title>
    <g id="Layer_2" data-name="Layer 2">
        <g id="svg2">
            <path id="path34" d="M465.23 414.71 467.69 412.67 470.7 413.32 478.43 417.14 481.85 414.9 486.67 415.51 489.07 420.34 494.1 422.07 497.89 424.95 501.47 423.65 506.11 423.65 512.13 421.33 517.12 422.96 519.41 425.52 527.5 426.35 520.35 423.2 516.22 419.11 520.35 417.18 522.46 415.32 527.32 411.46 526.36 406.51 526.99 401.87 524.05 400.36 523.75 398.89 520.84 398.57 516.18 394.06 515.7 390.78 509.91 382.7 509.69 380.13 498.55 379.95 495.64 382.52 491.76 384.58 488.08 388.58 483.9 388.18 479.8 388.98 477.2 385.65 475.13 384.14 474.63 381.67 473.19 381.84 471.9 379.8 472.41 376.7 471.37 373.81 461.99 366.64 460.94 363.95 457.53 359.72 461.29 355.05 460.54 352.77 461.82 348.93 468.99 342.58 469.69 339.25 472.21 337.75 477.18 337.49 477.74 336.53 470.01 330.14 469.77 326.81 468.93 322.81 465.43 319.83 464.61 315.87 463.08 313.67 463.39 310.92 465.27 309.65 467.07 309.85 471.2 307.44 474.05 304.77 470.23 304.77 468.09 305.68 465.39 303.67 459.42 303.19 455.43 302.08 453.67 300.81 454.01 298.25 451.29 296.15 450.75 291.02 448.85 288.92 448.85 284.89 439.09 283.75 434.31 280.89 429.66 281.66 428.53 285.78 423.29 285.78 420.08 283.47 414.34 280.29 409.58 279.73 403.29 284.01 394.92 287.81 393.29 288.04 390.98 287.49 388.99 286.07 384.12 283.78 383.21 285.98 367.52 309.21 394.18 327.94 393.09 331.25 394.04 333.04 394.04 334.57 394.45 335.42 394.45 336.67 398.32 337.52 396.38 343.19 391.23 351.63 388.9 353.09 396.88 362.11 399.02 366.25 405.21 367.63 409.97 368.14 417.87 368.14 422.88 371.23 425.41 371.76 429.39 378.38 436.61 379.75 438.57 382.68 437.71 385.38 442.19 392.39 448.11 394.27 451.25 396.37 455.39 403.07 458.2 403.12 463.13 409.93 465.23 414.71z" style="fill:#ffac65;stroke:#666;stroke-width:0.4000000059604645px;fill-rule:evenodd"/>
            <path id="path36" d="M391.77 476.13 389.47 473.92 385.38 472.95 382.26 471.67 376.18 465.95 368.76 459.96 367.92 457.14 369.64 455.4 372.25 455.92 373.84 453.87 374.36 449.59 374.62 443.05 376.5 441.15 381.75 441.15 388.29 441.67 389.92 433.76 392.97 437.66 401.07 435.74 402.83 436.89 405.18 436.89 408.08 440.56 410.06 432.35 412.9 426.89 418.23 425.75 421.8 427.59 420.99 434.52 420.99 442.19 425.68 442.19 427.09 444.06 437.81 444.06 443.3 445.85 447.7 445.85 449.53 447.26 452.96 447.26 456.22 445.63 459.02 447.64 461.32 447.48 461.64 445.53 459.21 443.21 458.55 441.31 459.22 438.63 461.98 435.36 463.2 431.86 467.74 435.69 470.55 435.69 473.69 433.59 476.99 434.29 481.93 431.04 485.58 431.04 488.84 433 490.57 432.64 492.14 433.62 494.44 432.91 494.78 435.94 496.38 437.59 500.32 436.6 501.63 434.91 504.04 432.92 505.82 433.92 507.05 435.58 508.48 435.88 509.88 433.69 512.51 434.1 513.64 435.93 514.73 435.56 515.17 433.3 514.61 430.53 513.42 427.62 515.6 426.3 520.48 426.99 527.5 426.35 519.41 425.52 517.12 422.96 512.13 421.33 506.11 423.65 501.47 423.65 497.89 424.95 494.1 422.07 489.07 420.34 486.67 415.51 481.85 414.9 478.43 417.14 470.7 413.32 467.69 412.67 465.23 414.71 463.13 409.93 458.2 403.12 455.39 403.07 451.25 396.37 448.11 394.27 442.19 392.39 437.71 385.38 438.57 382.68 436.61 379.75 429.39 378.38 425.41 371.76 422.88 371.23 417.87 368.14 409.97 368.14 405.21 367.63 399.02 366.25 396.88 362.11 388.9 353.09 387.5 357.35 386.23 356.12 381.68 360.6 380.6 360.13 378.69 364.13 373.75 367.24 368.51 371.69 366.04 369.8 361.83 369.47 356.94 372.81 352.76 377.67 357.9 385.87 357.6 393.87 353.68 399.17 353.05 402.85 349.09 407.1 345.18 405.14 338.55 409.34 346.12 419.1 341.84 425.25 341.46 432.54 344.55 435.05 347.1 438 349.63 442.29 346.87 446.8 347.8 449.23 348.31 452.94 345.9 465.17 342.26 468.62 343.91 473.66 343.64 476.2 346.18 477.91 349.65 477.91 351.03 479.49 351.21 483.46 356.85 488.96 380.32 494.06 382.23 492.68 382.23 489.93 380.05 486.28 390.22 479.03 391.77 476.13z" style="fill:#f93;stroke:#666;stroke-width:0.4000000059604645px;fill-rule:evenodd"/>
            <path id="path38" d="M357.6 393.87 357.9 385.87 352.76 377.67 356.94 372.81 361.83 369.47 366.04 369.8 368.51 371.69 373.75 367.24 378.69 364.13 380.6 360.13 381.68 360.6 386.23 356.12 387.5 357.35 388.9 353.09 391.23 351.63 396.38 343.19 398.32 337.52 394.45 336.67 394.45 335.42 394.04 334.57 394.04 333.04 393.09 331.25 394.18 327.94 367.52 309.21 383.21 285.98 384.12 283.78 388.99 286.07 383.1 280.73 378.47 280.33 381.51 276.68 358.3 272.83 352.22 273.32 317.62 267.69 315.97 275.88 310.72 288.83 281.81 341.46 281.08 344.47 281.9 347.85 301.5 402.87 302.25 405.92 302.69 410.68 302.97 418.93 309.81 421.74 321.2 430.23 328.8 435.75 329.87 440.87 332.85 440.87 333.73 443.84 336.51 443.84 340.64 445 340.64 447.36 343.22 449.23 347.8 449.23 346.87 446.8 349.63 442.29 347.1 438 344.55 435.05 341.46 432.54 341.84 425.25 346.12 419.1 338.55 409.34 345.18 405.14 349.09 407.1 353.05 402.85 353.68 399.17 357.6 393.87z" style="fill:#ed8e2f;stroke:#666;stroke-width:0.4000000059604645px;fill-rule:evenodd"/>
            <path id="path40" d="M340.71 180.48 337.11 183.31 335.76 184.46 334.98 185.98 334.55 187.61 334.25 196.19 333.91 198.29 333.43 199.97 317.62 267.69 352.22 273.32 358.3 272.83 381.51 276.68 378.47 280.33 383.1 280.73 388.99 286.07 390.68 280.99 390.96 276.32 392.07 264.2 395.2 243.26 401.88 206.25 403.48 198.22 403.69 193.56 402.64 190.87 403.34 176.09 404.38 174.06 402.01 170.93 397.48 170.41 389.6 161.91 388.82 161.07 381.44 160.44 378.08 161.29 371.86 159.71 368.96 153.07 365.15 151.35 362.44 151.97 357 149.45 356.76 150.48 355.85 152.54 353.89 154.82 351.05 157.1 348.59 159.68 347.35 162.09 346.98 164.68 345.94 171.94 344.97 175.64 344.08 177.25 342.55 178.83 340.71 180.48z" style="fill:#693;stroke:#666;stroke-width:0.4000000059604645px;fill-rule:evenodd"/>
            <path id="path42" d="M365.15 151.35 368.96 153.07 371.86 159.71 378.08 161.29 381.44 160.44 388.82 161.07 389.6 161.91 393.45 159.52 400.65 157.78 404.78 150.86 416.46 148.82 417.34 146.34 414.87 145.52 413.63 141.34 416.21 136.96 418.03 137 420.41 134.99 418.75 133.08 413.8 131.59 411.82 127.19 421.15 109.43 421.97 103.2 420.84 100.36 423.2 96.05 422.91 92.83 424.8 92.83 424.97 93.98 428.79 96.32 431.77 92.58 441.2 94.65 442.25 91.8 439.23 91.68 435.16 87.5 434.16 85.85 432.66 86.84 428.99 86.76 424.84 84.58 420.97 84.19 418.04 80.76 415.5 81.8 408.4 79.63 400.53 77.56 394.3 75.18 387.52 68.54 385.9 66.73 385.4 65.69 384.72 66.56 383.49 68.56 383.36 70.53 384.5 74.58 384.25 83.79 385.29 91.91 385.33 96.81 383.98 101.56 380.14 110.41 379.08 114.91 374.9 122.8 373.53 125.97 372.76 129.95 371.78 132.15 369.57 134.16 366.77 136.25 363.01 138.18 361.2 139.1 359.85 140.43 358.86 142.11 358.17 144.44 357 149.45 362.44 151.97 365.15 151.35z" style="fill:#72ab39;stroke:#666;stroke-width:0.4000000059604645px;fill-rule:evenodd"/>
            <path id="path44" d="M404.38 174.06 403.34 176.09 402.64 190.87 403.69 193.56 403.48 198.22 401.88 206.25 395.2 243.26 392.07 264.2 390.96 276.32 390.68 280.99 388.99 286.07 390.98 287.49 393.29 288.04 394.92 287.81 403.29 284.01 409.58 279.73 414.34 280.29 420.08 283.47 423.29 285.78 428.53 285.78 429.66 281.66 434.31 280.89 439.09 283.75 448.85 284.89 454 283.65 455.85 282.67 459.84 283.48 463.75 282.44 466.06 275.76 464.94 271.31 465.22 266.48 466.33 263.17 469.19 261.7 471.94 261.56 474.23 259.67 477.39 260.72 482.41 260.72 480.34 258.35 479.72 255.37 477.11 252.88 476.77 250.71 484.99 243.05 479 239.2 476.82 236.58 474.14 232.22 476.29 226.48 482.58 222.61 482.16 221.84 477.52 219.72 476.92 217.57 478.83 214.49 477.18 212.12 476.54 208.72 474.74 206.49 474.74 204.4 471.32 203.55 466.72 204.93 463.76 204.58 464.87 199.48 464.18 196.61 467.88 191.64 472.73 191.82 473.51 184.81 476.38 179.89 471.99 176.92 470.61 174.43 461.23 174.88 456.94 173.06 448.59 173.06 443.58 176.22 440.02 175.3 429.3 179.82 424.62 177.87 415.08 179.23 404.38 174.06z" style="fill:#7bb83d;stroke:#666;stroke-width:0.4000000059604645px;fill-rule:evenodd"/>
            <path id="path46" d="M471.99 176.92 476.38 179.89 479.13 176.04 478.6 162.56 475.5 160.78 478.3 157.09 477.65 154.65 475.52 152.22 478.25 149.34 476.87 144.31 479.15 140.65 477.2 137.74 473.56 136.11 476.41 130.68 478.87 128.08 478.37 120.91 474.71 117.16 469.52 107.22 466.97 107.92 463.17 102.68 459.46 99.62 453.62 97.77 451.43 95.66 449.87 93.16 446.08 94.2 442.25 91.8 441.2 94.65 431.77 92.58 428.79 96.32 424.97 93.98 424.8 92.83 422.91 92.83 423.2 96.05 420.84 100.36 421.97 103.2 421.15 109.43 411.82 127.19 413.8 131.59 418.75 133.08 420.41 134.99 418.03 137 416.21 136.96 413.63 141.34 414.87 145.52 417.34 146.34 416.46 148.82 404.78 150.86 400.65 157.78 393.45 159.52 389.6 161.91 397.48 170.41 402.01 170.93 404.38 174.06 415.08 179.23 424.62 177.87 429.3 179.82 440.02 175.3 443.58 176.22 448.59 173.06 456.94 173.06 461.23 174.88 470.61 174.43 471.99 176.92z" style="fill:#86c944;stroke:#666;stroke-width:0.4000000059604645px;fill-rule:evenodd"/>
            <path id="path48" d="M351.21 483.46 351.03 479.49 349.65 477.91 346.18 477.91 343.64 476.2 343.91 473.66 342.26 468.62 345.9 465.17 348.31 452.94 347.8 449.23 343.22 449.23 340.64 447.36 340.64 445 336.51 443.84 333.73 443.84 332.85 440.87 329.87 440.87 328.8 435.75 321.2 430.23 309.81 421.74 302.97 418.93 283.7 559.52 274.62 587.68 269.78 605.61 268.3 609.85 270.61 611.96 272.75 611.96 279.78 617.45 281.77 625.25 282.18 629.29 285.11 632.23 295.71 638.96 299.89 638.96 302.6 642.34 314.42 649.94 320.14 651.68 325.66 650.89 328.61 652.98 331.17 652.74 335.47 656.41 338.05 660.26 342.58 662.11 344.82 664.12 348.98 663.11 354.24 665.94 359.45 663.87 364.74 663.87 370.3 665.06 371.82 662.37 373.57 660.67 376.02 659.5 376.54 656.89 375.95 653.52 375.95 650.71 377.08 648.72 376.06 645.94 375.48 642.42 377.11 640.64 380.33 639.88 382.6 641.75 384.91 642.47 391.2 642.94 391.94 640.28 390.92 637.31 391.33 633.07 388.32 632.26 385.41 630.56 386.05 621.79 388.54 623.08 392.04 619.03 395.92 616.72 397.39 614.83 399.8 612.87 400.9 610.58 399.06 608.34 398.66 605.4 397.72 602.44 396.78 600.16 398.24 597.6 397.17 595.28 395.63 592.78 397.33 590.66 397.87 587.82 398.85 584.53 400.65 581.77 401.11 577.16 406.06 573.14 404.99 570.12 406.47 567.15 406.77 563.53 408.39 560.64 408.39 558.42 407.64 556.44 408.91 554.83 410.13 550.89 412.45 549.86 413.95 548.4 413.75 546.91 412.62 544.87 413.09 541.73 415.7 540.34 419.5 539.7 421.81 537.6 422.65 535.32 422.65 531.03 422.96 525.84 424.25 522.61 425.69 516.8 427.4 514.71 426.69 511.18 427.44 508.69 425.13 506.41 427.31 503.51 427.97 500.56 428.69 493.33 422.33 496.81 416.3 497.36 409.69 496.62 409.95 492.05 404.34 487.09 399.83 482.59 396.56 480.72 391.77 476.13 390.22 479.03 380.05 486.28 382.23 489.93 382.23 492.68 380.32 494.06 356.85 488.96 351.21 483.46z" style="fill:#eac102;stroke:#666;stroke-width:0.4000000059604645px;fill-rule:evenodd"/>
            <path id="path50" d="M266.6 287.89 260.29 284.32 258.61 279.75 254.23 276.09 252.98 271.3 250.88 268.87 247.35 266.07 241.48 262.81 235.15 258.43 227.68 250.71 223.4 246.01 221.19 241.36 218.37 238.25 214.53 241.44 198.86 311.27 196.86 315.85 201.89 314.02 203.28 314.31 208.16 313.22 206.24 334.81 193.48 335.12 188.4 333.07 181.78 332.84 179.66 365.77 161.38 361.46 158.71 364.31 156.91 371.63 141.92 369.05 134.15 368.71 130.13 372.73 123.64 372.73 119.08 373.85 111.37 373.85 116.42 374.93 117.86 375.67 120.39 375.08 121.59 375.57 123.52 377.53 124.89 377.91 125.84 377.73 127.31 376.81 128.78 377.29 130.36 378.24 137.22 383.17 140.07 390.59 152.95 391.18 159.48 391.07 178.14 390.76 192.65 390 190.76 385.11 290.98 381.7 278.93 347.85 278.28 344.45 278.83 341.46 305.93 292.15 295.64 294.96 291.27 295.58 284 295.28 278.32 293.98 272.97 292.54 266.6 287.89z" style="fill:#0083db;stroke:#666;stroke-width:0.4000000059604645px;fill-rule:evenodd"/>
            <path id="path52" d="M183.12 288.37 175.5 291.71 172.32 292.22 161.09 297.18 157.42 296.97 152.2 298.24 145.32 298.9 142.38 298.55 135.63 308.74 132.83 307.39 130.38 309.17 132.24 310.57 129.37 312.23 122 318.01 113.57 319.51 109.62 324.69 109.45 326.31 110.98 327.32 113.02 326.92 116.45 322.3 120.22 321.87 122 323.52 123.71 326.39 128.58 329.44 128.57 332.36 120.3 339.56 119.48 344.72 122.26 347.68 116.37 354.35 119.85 357.04 121.78 362.63 123.04 368.88 118.62 368.88 114.92 372.84 111.37 373.85 119.08 373.85 123.64 372.73 130.13 372.73 134.15 368.71 141.92 369.05 156.91 371.63 158.71 364.31 161.38 361.46 179.66 365.77 181.78 332.84 188.4 333.07 193.48 335.12 206.24 334.81 208.16 313.22 203.28 314.31 201.89 314.02 196.86 315.85 198.86 311.27 214.53 241.44 212.61 236.52 209.13 237.08 209.04 238.47 206.38 238.18 202.87 239.22 201.16 245.88 198.86 244.28 197.48 248.48 196.28 249.38 195.58 246.26 194.25 244.23 190.69 242.42 189.76 245.57 192.2 246.41 190.87 247.14 191.09 251.1 187.74 249.9 182.35 249.46 176.59 252.66 172.82 253.14 174.34 255.04 171.12 258.73 171.12 261.68 166.22 258.02 168.88 264.61 171.26 267.83 169.79 272.29 171.17 274.38 170.49 279.31 182.72 279.12 185.3 274.36 187.58 275.82 189.97 294.3 183.12 288.37z" style="fill:#008ae6;stroke:#666;stroke-width:0.4000000059604645px;fill-rule:evenodd"/>
            <path id="path54" d="M87.76 299.6 86.94 299.82 80.07 295.13 78.2 294.88 77.02 294.26 73.89 290.66 71.22 286.71 70.9 284.18 69.41 282.94 68 281.62 67.14 279.75 66.8 277.84 65.62 274.83 66.6 273.62 65.85 273.07 64.64 273.17 63.15 273.83 61.76 273.65 58.83 272.62 57.53 272.28 56.18 272.49 55.7 273.59 57.15 274.59 61.11 277.05 61.54 278.19 61.13 279.43 58.96 282.6 57.9 285.35 58.48 287.25 58.28 288.63 53.82 292.94 48.5 296.89 48.5 297.89 53.66 300.73 54.24 303.05 56.98 304.77 60.36 306.05 62.4 308.19 64.12 312.74 63.32 313.92 62.01 313.75 60.65 312.79 57 310.41 55.13 310.58 52.21 311 50.73 312.93 50.45 315.89 50.75 317.85 50.78 320.67 51.55 322.92 54.01 325.21 56.76 325.21 60.14 326.11 60.84 329.19 60.61 331.35 58.23 331.73 56.43 333.9 53.63 334.87 49.58 333.28 53.42 339.3 58.77 342.69 55.12 342.69 50.87 340.32 52.15 343.71 54.55 347.48 55.95 350.2 57.88 351.37 60.48 351.72 63.62 351.72 64.07 353.63 64.87 354.67 66.45 355.67 68.79 355.91 70.7 355.11 71.75 353.71 71.96 351.88 73 351.33 76.5 351.91 80.58 352.87 84.52 353.54 87.59 353.54 87.86 354.62 86.98 356.17 88.02 357.53 90.68 358.96 92.15 360.88 90.11 363.73 91.83 364.84 91.83 365.74 88.34 367.56 89.75 369.64 90 371.74 91.32 371.74 94.17 369.96 95.67 371.42 95 372.91 95 374.16 96.94 375.84 98.49 376.04 99.7 375.8 101.67 373.73 102.09 371.84 103.64 371.64 104.75 372.28 107.54 373.28 111.37 373.85 114.92 372.84 118.62 368.88 123.04 368.88 121.78 362.63 119.85 357.04 116.37 354.35 122.26 347.68 119.48 344.72 120.3 339.56 128.57 332.36 128.58 329.44 123.71 326.39 122 323.52 120.22 321.87 116.45 322.3 113.02 326.92 110.98 327.32 109.45 326.31 109.62 324.69 113.57 319.51 122 318.01 129.37 312.23 132.24 310.57 130.38 309.17 132.83 307.39 135.63 308.74 142.38 298.55 145.32 298.9 152.2 298.24 157.42 296.97 161.09 297.18 172.32 292.22 175.5 291.71 183.12 288.37 189.97 294.3 187.58 275.82 185.3 274.36 182.72 279.12 170.49 279.31 171.17 274.38 169.79 272.29 171.26 267.83 168.88 264.61 166.22 258.02 171.12 261.68 171.12 258.73 174.34 255.04 172.82 253.14 176.59 252.66 182.35 249.46 187.74 249.9 191.09 251.1 190.87 247.14 192.2 246.41 189.76 245.57 190.69 242.42 194.25 244.23 195.58 246.26 196.28 249.38 197.48 248.48 198.86 244.28 201.16 245.88 202.87 239.22 206.38 238.18 209.04 238.47 209.13 237.08 212.61 236.52 214.53 241.44 218.37 238.25 213 233.68 206.94 233.68 203.33 230.15 197.49 228.99 195.03 225.43 188.61 225.01 178.28 219.76 176.47 222.89 174.44 222.89 164.61 216.76 160.9 217.78 157.05 216.4 156.48 227.81 152.97 235.64 143.82 234.45 131.87 241.73 122.45 240.76 120.46 242.39 116.42 242.78 118.19 244.1 119.22 246.17 116.95 246.91 116.95 249 118.59 253.2 121.54 258.49 123.12 262.69 125.93 265.61 126.92 268.06 126.92 273.02 127.6 273.87 127.94 275.99 128.66 277.62 128.66 279.78 127.88 280.44 127.88 281.2 128.51 281.79 128.93 282.66 127.83 285.01 126.77 289.44 125.75 290.65 124.41 290.86 123.61 290.07 122.49 287.35 119.58 282.25 118.52 281.03 117.56 281.28 116.41 281.77 115.46 281.39 114.97 280.7 114.84 278.94 112.81 278.47 112.54 276.91 111.82 276.16 110.54 276.55 108.9 276.84 107.09 275.81 106.23 274.63 104.82 273.08 103.13 274 101.64 274.73 97.77 274.95 96.76 276.35 95.74 278.04 93.6 278.71 89.27 276.26 88.56 276.89 88.87 278.02 88.54 278.51 87.63 278.61 85.56 278.45 85.05 278.64 85.35 279.44 88.16 282.69 88.6 284.11 88.21 287.37 87.74 288.79 88.18 289.56 90.22 292.26 90.22 293.28 88.55 295.93 87.76 299.6z" style="fill:#0096fa;stroke:#666;stroke-width:0.4000000059604645px;fill-rule:evenodd"/>
            <path id="path56" d="M280.25 410.56 269.42 409.97 269.33 416.04 263.49 417.03 252.04 416.85 249.42 417.43 237.62 417.48 235.19 419.06 233.65 426.3 230.21 428.79 230.84 431.88 230.84 441.58 228.74 454.05 217.12 511.29 216.87 514.53 213.8 509.44 211.6 511.59 205.76 513.33 202.73 512 201.42 513.71 201.94 517 201.53 530.63 204.18 534.93 201.41 537.94 196.63 538.57 200.46 544.28 196.04 545.11 197.22 546.93 193.55 549.69 200.32 558.77 199.68 560.52 201.67 561.96 204.38 562.79 206.93 563.68 207.77 564.51 208.19 565.53 210.37 566.89 212.93 568.8 213.49 570.56 213.74 572.62 212.83 576.24 213.59 577.88 216.08 578.94 217.08 579.86 216.84 581.97 214.69 584.42 213.65 585.95 214.29 587.27 216.91 588.02 220.12 588.53 223.43 589.25 228.84 590.64 231.48 586.94 236.34 585.48 247.2 580.3 249.93 579.7 256.01 584.74 271.77 587.3 280.73 559.52 300 418.93 299.98 418.28 296.2 417.05 296.4 414.4 280.25 410.56z" style="fill:#993;stroke:#666;stroke-width:0.4000000059604645px;fill-rule:evenodd"/>
            <path id="path58" d="M149.09 439.62 148.2 441.36 150.38 443.76 148.95 445.83 145.47 445.83 142.71 444.37 141.04 447.56 143.02 448.68 143.02 449.79 140.79 449.79 140.03 451.16 142.87 453.6 140.98 457.93 137.71 455.13 137.13 458.47 134.93 458.91 132.72 456.53 120.92 458.37 118.53 457.8 115.27 456.47 110.65 457.33 111.03 459.6 112.88 461.7 114.01 463.29 115.88 465.22 118.38 465.6 120.11 468.67 122.44 470 126.98 469.77 129 471.5 131.35 470.95 134.04 469.82 136.28 469.64 137.72 470.87 138.06 473.37 139.69 475.02 145.51 474.78 148.75 477.92 149.26 479.44 150.66 480.94 149.83 483.79 151.94 485.75 154.79 486.63 155.05 489.45 153.94 491.55 155.72 493.25 155.72 497.96 154.7 499.39 153.77 500.94 152.19 502.57 151.98 503.91 152.88 504.79 155.44 506.04 162.22 512.42 162.22 514.63 163.06 515.79 164.65 516.7 162.92 517.82 157.84 520.68 157.18 521.2 156.93 522.16 157.88 523.35 163.88 526.95 165.23 527.75 165.55 528.97 164.08 530.57 161.4 532.75 159.45 531.45 157.66 531.14 154.99 531.67 151.65 531.45 147.04 532.93 145.19 533.22 147.57 534.54 151.84 534.95 154.42 536.47 157 539.4 159.31 540.29 161.49 541.89 163.91 546.84 164.96 547.46 166.16 546.8 168.17 543.59 170.61 543.12 172.85 543.7 174.17 544.67 174.01 546.7 177.35 551.19 177.9 552.41 177.69 554.36 177.97 555.88 179.31 556.93 181.13 556.1 182.52 556.1 183.41 557.15 183.68 558.47 185.45 558.09 187.12 557.14 188.94 557.78 191.79 557.98 195.69 557.67 198.18 558.93 199.68 560.52 200.32 558.77 193.55 549.69 197.22 546.93 196.04 545.11 200.46 544.28 196.63 538.57 201.41 537.94 204.18 534.93 201.53 530.63 201.94 517 201.42 513.71 202.73 512 205.76 513.33 211.6 511.59 213.8 509.44 216.87 514.53 217.12 511.29 228.74 454.05 230.84 441.58 230.84 431.88 230.21 428.79 233.65 426.3 235.19 419.06 237.62 417.48 249.42 417.43 252.04 416.85 263.49 417.03 269.33 416.04 269.42 409.97 280.25 410.56 296.4 414.4 296.2 417.05 299.98 418.28 299.72 410.68 299.27 405.92 298.52 402.87 290.98 381.7 190.76 385.11 192.65 390 178.14 390.76 159.48 391.07 152.95 391.18 140.07 390.59 137.22 383.17 130.36 378.24 130.01 380.94 128.78 382.91 128.78 384.15 130.86 384.65 132.65 385.79 133.99 386.77 135.7 388.63 135.95 389.54 135.81 390.25 135.3 390.69 134.54 390.84 133.82 390.52 132.68 389.72 131.01 389.49 129.64 390.21 127.97 388.87 125.21 388.87 121.96 387.59 118.14 387.59 115.5 385.57 113.11 382.74 112.6 379.88 108.96 377.84 107.6 377.84 105.98 377.03 102.95 376.81 100.91 376.81 99.96 377.64 99.77 378.65 102.62 378.91 105.67 379.8 107.28 380.78 108.43 382.47 108.43 384.23 107.69 386.06 106.79 388.7 105.93 391.59 104.39 393.17 102.06 393.76 98.36 393.33 96.24 394.66 93.25 395.06 92.19 396.51 92.82 397.7 94.81 397.27 97.59 397.92 99.8 398.68 102.47 398.95 105.33 398.57 108.41 398.32 110.3 398.94 114.77 401.93 116.75 401.69 118.37 402.89 121.12 404.04 124.17 403.76 126.07 404.71 125.5 407.13 123.3 409.48 122.91 411.52 121.04 413.58 121.23 414.54 122.06 415.62 121.9 417.29 124.27 418.75 126.1 419.24 129 419.55 130.62 419.83 129.9 420.56 128.07 420.84 126.3 421.33 122.14 421.71 120.18 422.76 119.41 423.67 120.1 424.76 122.1 425.57 124.04 426.76 125.01 428.33 123.35 429.46 121.46 431.16 122.16 434.05 122.91 434.9 126.11 434.62 127.8 435.95 128.03 437.6 130.37 437.99 134.37 436.76 135.75 437.62 137.69 436.5 137.89 435.3 138.76 433.65 140.81 432.25 143.76 431.9 144.96 427.4 146.9 426.83 147.87 427.78 148.48 428.58 149.06 430.73 149.22 433.47 148.92 436.72 151.76 436.72 152.81 438.67 151.78 440.41 149.09 439.62z" style="fill:#b0b03b;stroke:#666;stroke-width:0.4000000059604645px;fill-rule:evenodd"/>
            <path id="path60" d="M85.76 204.51 88.47 206.2 88.99 208.95 91.9 211.46 93.72 211.97 96.44 211.74 93.75 222.43 96.87 224.87 100.31 228.42 104.06 231.12 105.44 231.73 107.3 231.73 107.91 233.78 106.95 239.56 105.72 242.83 105.15 243.92 105.15 244.54 105.8 244.88 107.7 244.73 110.36 244.14 113.04 243.71 114.78 243.07 116.42 242.78 120.46 242.39 122.45 240.76 131.87 241.73 143.82 234.45 152.97 235.64 156.48 227.81 157.05 216.4 160.9 217.78 164.61 216.76 174.44 222.89 176.47 222.89 178.28 219.76 188.61 225.01 195.03 225.43 197.49 228.99 203.33 230.15 206.94 233.68 213 233.68 218.37 238.25 221.19 241.36 223.4 246.01 227.68 250.71 235.15 258.43 241.48 262.81 247.35 266.07 250.88 268.87 252.98 271.3 254.23 276.09 258.61 279.75 260.29 284.32 266.6 287.89 272.97 292.54 284 295.28 291.27 295.58 295.64 294.96 305.93 292.15 307.75 288.83 313 275.88 314.75 267.28 304.06 265.8 294.55 260.78 295.37 255.48 298.94 247.79 282.01 235.08 281.86 230.67 286.68 224.81 287.32 221.69 286.83 219.44 289.78 216.54 287.24 213.75 294.32 206.74 298.47 210.81 302.76 213.67 307.8 208.74 302.52 203.59 306.81 200.8 307.16 197.91 313.04 199.41 315.55 199.41 315.43 197.66 312.17 196.48 310.27 197.08 304.62 192.47 301.44 192.7 296.11 187.11 293.86 187.58 291.81 185.27 287.93 184.59 279.72 179.7 271.59 178.43 263.91 174.25 262.62 171.85 262.62 168.51 260.33 168.51 258.46 165.67 254.7 163.74 251.03 159.79 252.45 156.7 252.89 151.19 257.33 148.79 259.56 146.49 254.74 142.59 251.19 142.12 248.75 140.06 248.78 137.6 246.95 135.2 245.02 135.2 244.33 136.56 242.04 137.85 240.28 136.56 236.88 132.65 234.93 128.92 232.7 128.92 229.85 131.59 228.04 131.91 225.08 129.79 224.01 132.83 220.84 132.51 219.9 133.64 218.01 133.86 215.05 133.12 210.91 133.73 210.51 137.41 207.3 137.41 205.52 138.37 205.52 140.93 204.86 142.72 203.2 145.25 200.91 146.83 194.13 146.83 193.33 149.5 191.04 150.41 189.92 149.36 188.66 149.36 187.26 150.51 183.68 150.51 180.99 153.18 179.04 153.81 172.93 152.98 171.38 152.1 168.97 149.92 168.03 147.22 162.96 141.64 162.96 139.28 161.9 137.72 158.99 138.78 157.86 138.07 155.25 139.32 153.5 139.02 148.14 144.63 147.38 144.63 146.01 143.81 145.14 144.28 144.6 146.7 142.78 145.82 142.12 146.27 141.72 149.64 140.43 151.75 135.54 155.55 132.27 159.78 128.36 163.53 123.83 165.44 122.89 166.51 122.67 167.73 122.98 170.12 122.39 171.32 119.67 174.04 116.19 175.73 113.08 176.87 109.15 177.73 99.33 177.31 95.46 177.54 93.6 178.34 92.44 179.69 90.99 181.52 88.47 183.41 85.41 184.83 81.93 185.73 81.93 190.35 82.78 193.96 84.98 198.96 83.85 201.85 83.04 202.72 85.76 204.51z" style="fill:#c93;stroke:#666;stroke-width:0.4000000059604645px;fill-rule:evenodd"/>
            <path id="path62" d="M381.75 66.56 386.75 60.19 381.91 57.24 379.98 56.62 352 58.05 345.66 54.75 342.32 53.83 338.83 54.73 336.38 56.92 332.78 56.67 327.29 62.81 319.95 63.87 317.52 74.34 317.08 86.38 319.23 86.73 319.28 90.29 330.23 90.26 330.24 90.29 331.85 98.23 325.87 110.55 323.96 109.8 321.76 115.24 316.14 114.49 313.16 117.9 314.51 121.7 312.07 124.82 299.58 164.04 289.05 161.08 284.9 171.72 279.72 179.7 287.93 184.59 291.81 185.27 293.86 187.58 296.11 187.11 301.44 192.7 304.62 192.47 310.27 197.08 312.17 196.48 315.43 197.66 315.55 199.41 313.04 199.41 307.16 197.91 306.81 200.8 302.52 203.59 307.8 208.74 302.76 213.67 298.47 210.81 294.32 206.74 287.24 213.75 289.78 216.54 286.83 219.44 287.32 221.69 286.68 224.81 281.86 230.67 282.01 235.08 298.94 247.79 295.37 255.48 294.55 260.78 304.06 265.8 314.75 267.28 331.77 196.27 331.93 194.33 332.36 187.92 332.71 186.09 333.43 184.36 334.48 183.06 339.58 178.83 341.74 176.82 343.17 174.58 344.01 171.09 344.6 164.78 345.05 162.37 346.1 159.75 348.08 157.1 350.92 154.82 353.13 152.63 354.68 149.95 356.53 142.36 357.48 140.35 358.8 138.82 360.69 137.36 363.8 135.68 366.73 133.87 369.07 131.98 370.48 130.06 371.72 125.43 372.71 122.86 376.96 114.86 378.21 109.73 381.65 101.5 382.94 96.31 382.59 91.43 381.73 83.77 381.99 74.98 380.79 70.6 380.89 68.38 381.75 66.56z" style="fill:#ba8c2f;stroke:#666;stroke-width:0.4000000059604645px;fill-rule:evenodd"/>
            <path id="path64" d="M259.56 146.49 257.33 148.79 252.89 151.19 252.45 156.7 251.03 159.79 254.7 163.74 258.46 165.67 260.33 168.51 262.62 168.51 262.62 171.85 263.91 174.25 271.59 178.43 279.72 179.7 284.9 171.72 289.05 161.08 299.58 164.04 312.07 124.82 314.51 121.7 313.16 117.9 316.14 114.49 321.76 115.24 323.96 109.8 325.87 110.55 331.85 98.23 330.24 90.29 319.28 90.29 319.23 86.73 317.08 86.38 317.52 74.34 319.95 63.87 302.67 62.66 298.24 61.25 295.3 63.61 287.56 64.69 275.77 70.29 268.58 68.97 261.06 69.53 257.93 67.83 253.9 69.96 253.9 73.15 251.72 75.84 251.4 77.14 255.82 80.82 256.66 82.11 256.14 85.53 259.8 87.83 264.72 90.16 265.51 93.99 264.82 97.04 263.77 99.66 262.03 99.96 259.1 99.28 256.43 99.73 254.92 100.85 253.81 102.89 253.81 109.34 255.15 110.97 254.82 113.64 252.46 116 251.75 121.76 253.62 123.21 253.93 124.95 251.68 127.44 251.15 130.66 248.46 131.74 245.81 133.67 245.02 135.2 246.95 135.2 248.78 137.6 248.75 140.06 251.19 142.12 254.74 142.59 259.56 146.49z" style="fill:#dba538;stroke:#666;stroke-width:0.4000000059604645px;fill-rule:evenodd"/>
            <path id="path66" d="M10.28,317.86l-6.19,1.07L.2,318.38V522.45l4.8-.18,8.27,2,6.09,2.67,3,1.8,1.84,1.66,2.15,3.53,2,4.76,5,8,5.91,5.15,8.35,3.25,4.37,2.87,3.74,4.67,1.3,2.47.4,4.37L58.73,573l1.85,3.43,5.36-2.08,7-.85,5.71,1.27,13.75-.33,9,.4,4.43,1.11,4.14-.48,4.25-2.32,3.56,2.37,2.16,2.7,1.85,5.69,2,11.53,2.75,6.22.47,3.78,1.5,4.81,3.8,6.46L138,622.9l7.88,7.44,6.15,4.38,1.41.95,1.35-.43.64-1.77.35-2.15.87-2.41,2.55-2.76,3.95-1,6,.92,4,2.64,6.15.18,4.47-.92,5.52-.23,2.44-2,1.48-2.57,3.11-1.84,3-.61,3.93-1,3-.53,7.86-4,6.11-5.18,1.44-1.57,2.36-4.61,4.69-13.24-5.41-1.39-3.31-.72-3.21-.51-2.62-.75-.63-1.32,1-1.52,2.15-2.46.24-2.11-1-.92-2.48-1.06-.77-1.64.91-3.62-.25-2.06-.56-1.76-2.56-1.91-2.18-1.36-.42-1-.84-.83-2.55-.89-2.71-.83-2-1.44-1.5-1.59-2.49-1.26-3.9.3-2.85-.19-1.82-.64-1.67,1-1.77.37-.27-1.31-.89-1h-1.39l-1.82.83-1.34-1-.28-1.52.21-2-.55-1.22L174,546.7l.16-2-1.31-1-2.25-.58-2.44.47-2,3.21-1.2.66-1.05-.62-2.42-5-2.19-1.6-2.3-.89-2.58-2.93L151.84,535l-4.27-.41-2.38-1.32,1.86-.29,4.61-1.49,3.33.22,2.67-.52,1.79.31,2,1.3,2.69-2.19,1.46-1.59-.32-1.22-1.35-.8-6-3.6-.95-1.19.25-1,.66-.51,5.08-2.86,1.73-1.12-1.59-.91-.84-1.16v-2.21L155.44,506l-2.56-1.25-.9-.87.21-1.34,1.58-1.63.93-1.55,1-1.43v-4.71l-1.78-1.7,1.11-2.11-.26-2.81-2.85-.87-2.11-2,.83-2.85-1.4-1.5-.5-1.52-3.24-3.14-5.83.24-1.63-1.66-.34-2.5-1.44-1.22-2.24.18L131.36,471l-2.36.55-2-1.73-4.54.23-2.33-1.33-1.73-3.07-2.5-.38L114,463.29l-1.13-1.59L111,459.59l-.38-2.26,4.62-.86,3.27,1.33,2.38.57,11.8-1.84,2.21,2.38,2.21-.44.57-3.34,3.27,2.8,1.89-4.34L140,451.16l.76-1.37H143v-1.11l-2-1.12,1.67-3.19,2.77,1.46H149l1.43-2.07-2.18-2.4.89-1.74,2.69.79,1-1.74-1.05-1.95h-2.84l.3-3.25-.16-2.74-.58-2.15-.61-.8-1-.95-1.94.57-1.2,4.51-2.95.33-2.05,1.41-.87,1.65-.2,1.2-1.94,1.12-1.38-.86-4,1.23L128,437.6,127.8,436l-1.68-1.33-3.21.28-.75-.85-.7-2.89,1.89-1.7,1.66-1.13-1-1.57-1.94-1.19-2-.81-.69-1.1.77-.9,2-1.06,4.16-.37,1.77-.49,1.83-.28.72-.73-1.62-.28-2.9-.31-1.83-.49-2.37-1.46.16-1.67-.83-1.08-.19-1,1.87-2.06.39-2,2.2-2.35.57-2.42-1.9-.95-3,.28-2.75-1.16-1.62-1.19-2,.24-4.47-3-1.89-.62-3.08.25-2.86.38-2.67-.27-2.21-.76-2.78-.65-2,.43-.63-1.19,1.06-1.45,3-.4,2.12-1.33,3.7.43,2.33-.59,1.54-1.58.86-2.89.9-2.64.74-1.83v-1.76l-1.15-1.69-1.61-1-3-.89-2.85-.26.19-1,1-.83h2l3,.22,1.62.81H109l3.64,2,.51,2.85,2.39,2.84,2.64,2H122l3.25,1.27H128l1.67,1.34,1.37-.71,1.67.23,1.14.8.72.32.76-.15.51-.44.14-.71-.24-.91L134,386.77l-1.34-1-1.79-1.13-2.09-.5v-1.24l1.24-2,.35-2.7-1.59-.95-1.46-.49-1.47.93-1,.18-1.37-.38-1.92-2-1.21-.49-2.53.59-1.44-.74-5-1.08-3.83-.57-2.79-1-1.11-.64-1.54.2-.43,1.89-2,2.07-1.21.24-1.55-.2L95,374.16v-1.25l.67-1.49L94.18,370l-2.86,1.78H90l-.26-2.1-1.4-2.09,3.49-1.81v-.9l-1.72-1.11,2-2.85L90.68,359,88,357.53l-1-1.36.88-1.56-.27-1.07H84.51l-3.93-.67-4.08-1-3.5-.59-1,.56-.21,1.83-1,1.4-1.91.8-2.34-.24-1.58-1-.8-1.05-.45-1.9H60.48l-2.6-.36L56,350.2l-1.4-2.72-2.4-3.77-1.28-3.39,4.25,2.37h3.65l-5.35-3.39-3.84-6,4.05,1.58,2.8-1,1.8-2.17,2.38-.39.23-2.16-.7-3.07-3.38-.9H54l-2.46-2.29-.77-2.25,0-2.82H37.15l-5.1.88-3.89,1.14-3.51-.35-4.56-1.66ZM62.05,456.71,59,456.13l-1.21-.2L57,455.5l-.05-1.41.87-.82h2l1.11.05,1.75-.1,2,.53,1.17-.19-.44-.87.87-1.79,1-1.21.63.82,2.39,2.08.34-.81.23-1.07.35-1.45.45.15,1.5.8,1.88-.15,1.68.35,2.64,1.3.58,1.11v1.45H78.61l-1.11-.19-2-.42-1.53.11-2.11.16-.57,1.18-1.3,2.8-1,1.15-1.07.11-1.22.38-.39-.57-.42-1.34-.5-1.45-1.07.23-.87.05ZM37.75,340.27l-1.7.91-1,0-.54-1v-1.5l.21-1.77.19-1.54.77-1.58,2-.3.81.72,1.54.44,1.65,1.24,1,.35.38-1.81,2.67.16,1.51.11,1.24.67,1.52.76,1.18.92.46.75L51.52,339l-.62.41h-.51L50,339l-.54.32-.75.62-.7.27-.54-.32-.52-.79-2-.72-1.78-.33L41.29,338l-1.08.38-1.57,1.08Zm26.33,69.21-1.24-1.7,1.16.7,1.24-.47,1.24-1.7.46-1.14.9-.38,1-.11.23-1,.17-.43.64-.23,1.47.47,1,.49.88,0,1.13-.57,1.2-.6.93-.19L77.59,404l1.48,2.61-2.24,2-2.13-.09-.64.41H73l-.49.61-.74.57h-.91l-.72-.25-.41-.14H68.47l-.82.69-.92.19-1.2-.19Zm64,122.34-.22-2v-2.57l1.19.09,1.33.11,1.08.08,1.08,0,1.21.43v.91l-.61.6-.29,1.28L132,531l-2,.78Z" style="fill:#e5e5e5;stroke:#666;stroke-width:0.4000000059604645px;fill-rule:evenodd"/>
            <path id="path68" d="M104.06 231.12 100.31 228.42 96.87 224.87 93.75 222.43 91.44 221.75 88.13 222.17 85.69 221.7 84.16 221.1 81.65 221.44 79.49 221.44 78.01 220.15 76.83 218.29 75.03 217.03 70.02 214.38 68.62 213.79 67.26 213.79 66.23 214.51 65.03 216.49 63.62 217.81 62.02 218.61 58.7 216.06 57.16 216.06 55.9 217.74 54.91 218.27 52.51 217.61 49.54 218.05 46.58 218.75 43.74 216.95 42.83 215.53 41.6 214.36 40.53 214.36 39.2 215.31 37.35 216.95 36.35 217.28 34.57 216.81 32.58 218.1 29.67 219.21 26.96 218.88 24.51 219.19 22.02 219.77 20.28 219.98 19.21 219.41 19.08 218.33 20.2 217.11 20.95 215.41 18.43 214.74 16.39 212.9 15.59 210.38 13.26 208.55 12.16 206.72 12.16 204.96 13.01 203.22 13.89 202.13 13.89 201.01 14.96 199.56 15.82 199.56 17.06 200.96 18.38 201.72 20.71 201.6 22.69 201.1 24.66 202.53 23.15 196.21 23.15 195.13 24.05 194.76 27.78 195.29 28.99 196.67 29.58 198.41 30.27 199.79 36.59 199.79 38.45 201.53 40.67 201.92 42.3 201.92 44.54 201.02 46.54 199.99 49.04 199.01 51.1 198.87 52.79 199.24 54.38 201.76 55.59 205.95 56.54 206.8 58.07 206.8 60.45 206.49 64.07 206.49 66.82 204.83 71.09 206.59 73.31 206.19 77.17 203.48 79.41 202.72 83.04 202.72 83.85 201.85 84.98 198.96 82.78 193.96 81.93 190.35 81.93 185.73 85.41 184.83 88.47 183.41 90.99 181.52 92.44 179.69 93.6 178.34 95.46 177.54 99.33 177.31 109.15 177.73 113.08 176.87 116.19 175.73 119.67 174.04 122.39 171.32 122.98 170.12 122.67 167.73 122.89 166.51 123.83 165.44 128.36 163.53 132.27 159.78 135.54 155.55 140.43 151.75 141.72 149.64 142.12 146.27 142.78 145.82 144.6 146.7 145.14 144.28 146.01 143.81 147.38 144.63 148.14 144.63 153.5 139.02 155.25 139.32 157.86 138.07 158.99 138.78 161.9 137.72 162.96 139.28 162.96 141.64 168.03 147.22 168.97 149.92 171.38 152.1 172.93 152.98 179.04 153.81 180.99 153.18 183.68 150.51 187.26 150.51 188.66 149.36 189.92 149.36 191.04 150.41 193.33 149.5 194.13 146.83 200.91 146.83 203.2 145.25 204.86 142.72 205.52 140.93 205.52 138.37 207.3 137.41 210.51 137.41 210.91 133.73 215.05 133.12 218.01 133.86 219.9 133.64 220.84 132.51 224.01 132.83 225.08 129.79 228.04 131.91 229.85 131.59 232.7 128.92 234.93 128.92 236.88 132.65 240.28 136.56 242.04 137.85 244.33 136.56 245.02 135.2 245.81 133.67 248.46 131.74 251.15 130.66 251.68 127.44 253.93 124.95 253.62 123.21 251.75 121.76 252.46 116 254.82 113.64 255.15 110.97 253.81 109.34 253.81 102.89 254.92 100.85 256.43 99.73 259.1 99.28 262.03 99.96 263.77 99.66 264.82 97.04 265.51 93.99 264.72 90.16 259.8 87.83 256.14 85.53 256.66 82.11 255.82 80.82 251.4 77.14 251.72 75.84 253.9 73.15 253.9 69.96 252.34 66.31 249.33 65.63 241.83 70.35 239.03 71.82 233.33 72.41 230.02 73.72 223.79 72.82 218.25 75.84 213.23 75.84 208 78.53 203.78 78.53 199.08 77.72 194.13 76.8 189.62 72.39 186.94 71.67 177.33 72.05 173.55 70.5 170.18 66.72 157.29 56.66 142.78 51.42 133.84 48.84 129.5 48.43 125.16 49.76 120.81 50.66 115.23 49.16 108.27 47.78 100.98 47.11 93.04 47.28 83.28 49.13 79.34 49.56 76.64 48.78 69.67 42.94 63.4 41.81 57.04 37.83 49.03 34.7 44.81 33.81 38.23 32.75 35.34 31.36 32.45 27.74 29.88 22.97 24.19 16.86 20.7 14.43 17.36 13.41 12.05 12.97 7.85 11.6 1.34 2.16 0.2 0.61 0.2 318.38 4.09 318.93 10.28 317.86 20.09 317.86 24.65 319.52 28.16 319.87 32.05 318.73 37.14 317.85 50.75 317.85 50.45 315.89 50.73 312.93 52.21 311 55.13 310.58 57 310.41 60.65 312.79 62.01 313.75 63.32 313.92 64.12 312.74 62.4 308.19 60.36 306.05 56.98 304.77 54.24 303.05 53.66 300.73 48.5 297.89 48.5 296.89 53.82 292.94 58.28 288.63 58.48 287.25 57.9 285.35 58.96 282.6 61.13 279.43 61.54 278.19 61.11 277.05 57.15 274.59 55.7 273.59 56.18 272.49 57.53 272.28 58.83 272.62 61.76 273.65 63.15 273.83 64.64 273.17 65.85 273.07 66.6 273.62 65.62 274.83 66.8 277.84 67.14 279.75 68 281.62 69.41 282.94 70.9 284.18 71.22 286.71 73.89 290.66 77.02 294.26 78.2 294.88 80.07 295.13 86.94 299.82 87.76 299.6 88.55 295.93 90.22 293.28 90.22 292.26 88.18 289.56 87.74 288.79 88.21 287.37 88.6 284.11 88.16 282.69 85.35 279.44 85.05 278.64 85.56 278.45 87.63 278.61 88.54 278.51 88.87 278.02 88.56 276.89 89.27 276.26 93.6 278.71 95.74 278.04 96.76 276.35 97.77 274.95 101.64 274.73 103.13 274 104.82 273.08 106.23 274.63 107.09 275.81 108.9 276.84 110.54 276.55 111.82 276.16 112.54 276.91 112.81 278.47 114.84 278.94 114.97 280.7 115.46 281.39 116.41 281.77 117.56 281.28 118.52 281.03 119.58 282.25 122.49 287.35 123.61 290.07 124.41 290.86 125.75 290.65 126.77 289.44 127.83 285.01 128.93 282.66 128.51 281.79 127.88 281.2 127.88 280.44 128.66 279.78 128.66 277.62 127.94 275.99 127.6 273.87 126.92 273.02 126.92 268.06 125.93 265.61 123.12 262.69 121.54 258.49 118.59 253.2 116.95 249 116.95 246.91 119.22 246.17 118.19 244.1 116.42 242.78 114.78 243.07 113.04 243.71 110.36 244.14 107.7 244.73 105.8 244.88 105.15 244.54 105.15 243.92 105.72 242.83 106.95 239.56 107.91 233.78 107.3 231.73 105.44 231.73 104.06 231.12z" style="fill:#e5e5e5;stroke:#666;stroke-width:0.4000000059604645px;fill-rule:evenodd"/>
            <path id="path70" d="M0.2 522.45 0.2 614.06 3.33 613.67 4.55 613.29 5.15 614.31 5.94 615.24 7.22 615.55 8.46 614.8 9.71 614.61 10.75 613.89 11.46 613.03 12.42 612.7 14.34 614.06 14.19 615.06 14.33 615.71 15.33 615.47 16.31 615.59 17.11 616.14 17.42 617.32 15.56 619.52 16.58 621.44 17.09 624.37 18.07 627.11 18.38 629.13 17.4 630.51 17.05 632.13 18.01 633.26 19.91 634.32 22.08 635.69 22.61 637.55 23.66 639.75 25.5 641.42 26.15 645.01 27.21 646.65 28.23 644.6 33.84 638.97 38.85 632.98 45.31 629.19 50.44 622.62 53.63 621.34 59.34 620.38 60.83 618.66 62.19 614.52 65.7 609.99 70.8 599.77 71.6 595.57 69.86 591.91 64.39 586.15 60.58 576.41 58.73 572.98 57.38 569.45 56.98 565.08 55.68 562.61 51.94 557.94 47.57 555.07 39.22 551.82 33.31 546.67 28.36 538.65 26.39 533.89 24.24 530.36 22.4 528.7 19.35 526.9 13.27 524.23 5 522.27 0.2 522.45z" style="fill:#e5e5e5;stroke:#666;stroke-width:0.4000000059604645px;fill-rule:evenodd"/>
            <path id="path72" d="M492.6 110.83 489.72 110.83 486.28 113.43 484.01 113.69 478.37 120.91 478.87 128.08 476.41 130.68 473.56 136.11 477.2 137.74 479.15 140.65 476.87 144.31 478.25 149.34 475.52 152.22 477.65 154.65 478.3 157.09 475.5 160.78 478.6 162.56 479.13 176.04 476.38 179.89 473.51 184.81 472.73 191.82 467.88 191.64 464.18 196.61 464.87 199.48 463.76 204.58 466.72 204.93 471.32 203.55 474.74 204.4 474.74 206.49 476.54 208.72 477.18 212.12 478.83 214.49 476.92 217.57 477.52 219.72 482.16 221.84 482.58 222.61 476.29 226.48 474.14 232.22 476.82 236.58 479 239.2 484.99 243.05 476.77 250.71 477.11 252.88 479.72 255.37 480.34 258.35 482.41 260.72 477.39 260.72 474.23 259.67 471.94 261.56 469.19 261.7 466.33 263.17 465.22 266.48 464.94 271.31 466.06 275.76 463.75 282.44 459.84 283.48 455.85 282.67 454 283.65 448.85 284.89 448.85 288.92 450.75 291.02 451.29 296.15 454.01 298.25 453.67 300.81 455.43 302.08 459.42 303.19 465.39 303.67 468.09 305.68 470.23 304.77 474.05 304.77 471.2 307.44 467.07 309.85 465.27 309.65 463.39 310.92 463.08 313.67 464.61 315.87 465.43 319.83 468.93 322.81 469.77 326.81 470.01 330.14 477.74 336.53 477.18 337.49 472.21 337.75 469.69 339.25 468.99 342.58 461.82 348.93 460.54 352.77 461.29 355.05 457.53 359.72 460.94 363.95 461.99 366.64 471.37 373.81 472.41 376.7 471.9 379.8 473.19 381.84 474.63 381.67 475.13 384.14 477.2 385.65 479.8 388.98 483.9 388.18 488.08 388.58 491.76 384.58 495.64 382.52 498.55 379.95 509.69 380.13 509.91 382.7 515.7 390.78 516.18 394.06 520.84 398.57 523.75 398.89 524.05 400.36 526.99 401.87 526.36 406.51 527.32 411.46 522.46 415.32 520.35 417.18 516.22 419.11 520.35 423.2 527.5 426.35 520.48 426.99 515.6 426.3 513.42 427.62 514.61 430.53 515.17 433.3 514.73 435.56 513.64 435.93 512.51 434.1 509.88 433.69 508.48 435.88 507.05 435.58 505.82 433.92 504.04 432.92 501.63 434.91 500.32 436.6 496.38 437.59 494.78 435.94 494.44 432.91 492.14 433.62 490.57 432.64 488.84 433 485.58 431.04 481.93 431.04 476.99 434.29 473.69 433.59 470.55 435.69 467.74 435.69 463.2 431.86 461.98 435.36 459.22 438.63 458.55 441.31 459.21 443.21 461.64 445.53 461.32 447.48 459.02 447.64 456.22 445.63 452.96 447.26 449.53 447.26 447.7 445.85 443.3 445.85 437.81 444.06 427.09 444.06 425.68 442.19 420.99 442.19 420.99 434.52 421.8 427.59 418.23 425.75 412.9 426.89 410.06 432.35 408.08 440.56 405.18 436.89 402.83 436.89 401.07 435.74 392.97 437.66 389.92 433.76 388.29 441.67 381.75 441.15 376.5 441.15 374.62 443.05 374.36 449.59 373.84 453.87 372.25 455.92 369.64 455.4 367.92 457.14 368.76 459.96 376.18 465.95 382.26 471.67 385.38 472.95 389.47 473.92 391.77 476.13 396.56 480.72 399.83 482.59 404.34 487.09 409.95 492.05 409.69 496.62 416.3 497.36 422.33 496.81 428.69 493.33 427.97 500.56 427.31 503.51 425.13 506.41 427.44 508.69 426.69 511.18 427.4 514.71 425.69 516.8 424.25 522.61 422.96 525.84 422.65 531.03 422.65 535.32 421.81 537.6 419.5 539.7 415.7 540.34 413.09 541.73 412.62 544.87 413.75 546.91 413.95 548.4 412.45 549.86 410.13 550.89 408.91 554.83 407.64 556.44 408.39 558.42 408.39 560.64 406.77 563.53 406.47 567.15 404.99 570.12 406.06 573.14 401.11 577.16 400.65 581.77 398.85 584.53 397.87 587.82 397.33 590.66 395.63 592.78 397.17 595.28 398.24 597.6 396.78 600.16 397.72 602.44 398.66 605.4 399.06 608.34 400.9 610.58 399.8 612.87 397.39 614.83 395.92 616.72 392.04 619.03 388.54 623.08 386.05 621.79 385.41 630.56 388.32 632.26 391.33 633.07 390.92 637.31 391.94 640.28 391.2 642.94 384.91 642.47 382.6 641.75 380.33 639.88 377.11 640.64 375.48 642.42 376.06 645.94 377.08 648.72 375.95 650.71 375.95 653.52 376.54 656.89 376.02 659.5 373.57 660.67 371.82 662.37 370.3 665.06 371.47 668.14 373 669.57 375.18 670.01 380.76 669.32 386 670.01 392.9 670.01 398.38 668.85 405.94 668.58 414.11 667.53 421.71 669.09 430.47 672.45 433.37 671.53 436.78 669.98 438.78 669.8 443.03 672.64 446.93 676.75 452.78 681.45 455.17 682.09 464.82 691.71 466.38 692.12 467.84 690.75 468.77 686.14 470.88 685.12 472.77 685.28 475.01 684.75 476.02 683.5 476.83 681.8 479.71 677.25 487.22 669.74 495.81 665.23 497.85 662.66 497.54 658.01 498.19 651.34 497.54 644.03 503.4 622.7 505.14 619.17 506.93 617.49 511.01 615.95 513.08 614.58 513.67 612.7 513 608.88 511.81 604.25 512.17 600.06 517.94 591.84 523.29 586.85 526.34 581.32 530.73 578.54 533.85 577.63 539.77 578.3 543.26 577.83 545.28 576.45 557.75 576.89 557.75 117.1 552.73 123.03 549.71 133.13 545.8 142.56 546.23 148.79 544.66 152.89 541.54 159.18 536.7 162.86 530.99 162.53 532.12 157.62 532.12 148.41 528.67 142.59 525.55 135.85 513.17 126.91 508.35 126.47 502 121.37 492.6 110.83z" style="fill:#e5e5e5;stroke:#666;stroke-width:0.4000000059604645px;fill-rule:evenodd"/>
            <path id="path74" d="M24.05 194.76 23.15 195.13 23.15 196.21 24.66 202.53 22.69 201.1 20.71 201.6 18.38 201.72 17.06 200.96 15.82 199.56 14.96 199.56 13.89 201.01 13.89 202.13 13.01 203.22 12.16 204.96 12.16 206.72 13.26 208.55 15.59 210.38 16.39 212.9 18.43 214.74 20.95 215.41 20.2 217.11 19.08 218.33 19.21 219.41 20.28 219.98 22.02 219.77 24.51 219.19 26.96 218.88 29.67 219.21 32.58 218.1 34.57 216.81 36.35 217.28 37.35 216.95 39.2 215.31 40.53 214.36 41.6 214.36 42.83 215.53 43.74 216.95 46.58 218.75 49.54 218.05 52.51 217.61 54.91 218.27 55.9 217.74 57.16 216.06 58.7 216.06 62.02 218.61 63.62 217.81 65.03 216.49 66.23 214.51 67.26 213.79 68.62 213.79 70.02 214.38 75.03 217.03 76.83 218.29 78.01 220.15 79.49 221.44 81.65 221.44 84.16 221.1 85.69 221.7 88.13 222.17 91.44 221.75 93.75 222.43 96.44 211.74 93.72 211.97 91.9 211.46 88.99 208.95 88.47 206.2 85.76 204.51 83.04 202.72 79.41 202.72 77.17 203.48 73.31 206.19 71.09 206.59 66.82 204.83 64.07 206.49 60.45 206.49 58.07 206.8 56.54 206.8 55.59 205.95 54.38 201.76 52.79 199.24 51.1 198.87 49.04 199.01 46.54 199.99 44.54 201.02 42.3 201.92 40.67 201.92 38.45 201.53 36.59 199.79 30.27 199.79 29.58 198.41 28.99 196.67 27.78 195.29 24.05 194.76z" style="fill:#b2b2b2;stroke:#666;stroke-width:0.4000000059604645px;fill-rule:evenodd"/>
            <path id="path76" d="M27.63 672.91 30.62 673.3 36.62 668.66 38.01 667.14 35.91 666.01 34.81 662.98 35.69 658.23 31.34 656.79 29.9 654.64 28.79 650.27 27.21 646.65 26.15 645.01 25.5 641.42 23.66 639.75 22.61 637.55 22.08 635.69 19.91 634.32 18.01 633.26 17.05 632.13 17.4 630.51 18.38 629.13 18.07 627.11 17.09 624.37 16.58 621.44 15.56 619.52 17.42 617.32 17.11 616.14 16.31 615.59 15.33 615.47 14.33 615.71 14.19 615.06 14.34 614.06 12.42 612.7 11.46 613.03 10.75 613.89 9.71 614.61 8.46 614.8 7.22 615.55 5.94 615.24 5.15 614.31 4.55 613.29 3.33 613.67 0.2 614.06 0.2 683.5 1.65 682.96 6.26 680.22 13.01 678.9 19.8 676.65 23.98 674.92 27.63 672.91z" style="fill:#b2b2b2;stroke:#666;stroke-width:0.4000000059604645px;fill-rule:evenodd"/>
            <path id="path78" d="M57.78 453.27 56.91 454.1 56.96 455.5 57.78 455.94 58.99 456.13 62.05 456.71 63.45 456.47 64.32 456.42 65.39 456.19 65.89 457.64 66.31 458.98 66.69 459.55 67.92 459.17 68.99 459.06 70.03 457.91 71.33 455.12 71.9 453.93 74.01 453.77 75.54 453.66 77.5 454.08 78.61 454.27 79.95 454.27 79.95 452.82 79.37 451.71 76.73 450.41 75.04 450.06 73.17 450.21 71.67 449.41 71.21 449.26 70.87 450.71 70.64 451.79 70.3 452.59 67.91 450.51 67.28 449.69 66.31 450.9 65.44 452.69 65.87 453.56 64.71 453.75 62.68 453.22 60.93 453.32 59.82 453.27 57.78 453.27z" style="fill:#b2b2b2;stroke:#666;stroke-width:0.4000000059604645px;fill-rule:evenodd"/>
            <path id="path80" d="M69.26 403.21 69.09 403.64 68.86 404.68 67.84 404.79 66.94 405.17 66.48 406.31 65.24 408.01 64 408.48 62.84 407.78 64.08 409.48 65.53 410.39 66.73 410.58 67.65 410.39 68.47 409.7 69.73 409.7 70.13 409.84 70.85 410.09 71.76 410.09 72.5 409.52 73 408.91 74.06 408.91 74.7 408.5 76.83 408.59 79.06 406.59 77.59 403.98 76.52 402.6 75.6 402.8 74.4 403.39 73.26 403.96 72.39 403.94 71.37 403.46 69.9 402.98 69.26 403.21z" style="fill:#b2b2b2;stroke:#666;stroke-width:0.4000000059604645px;fill-rule:evenodd"/>
            <path id="path82" d="M43.09 334.44 42.72 336.25 41.67 335.9 40.02 334.66 38.48 334.23 37.67 333.5 35.63 333.81 34.86 335.38 34.67 336.92 34.45 338.69 34.45 340.19 35 341.21 36.05 341.18 37.75 340.27 38.64 339.46 40.21 338.38 41.29 338 43.09 338.08 44.88 338.41 46.9 339.13 47.41 339.92 47.96 340.24 48.66 339.97 49.41 339.35 49.95 339.03 50.38 339.38 50.9 339.38 51.52 338.97 51.68 337.81 51.22 337.06 50.03 336.14 48.52 335.38 47.28 334.71 45.77 334.6 43.09 334.44z" style="fill:#b2b2b2;stroke:#666;stroke-width:0.4000000059604645px;fill-rule:evenodd"/>
            <path id="path84" d="M129.07 527.35 127.88 527.25 127.89 529.83 128.11 531.82 130.01 531.82 132.04 531.04 132.87 530.73 133.16 529.44 133.77 528.84 133.77 527.93 132.56 527.5 131.48 527.54 130.4 527.46 129.07 527.35z" style="fill:#b2b2b2;stroke:#666;stroke-width:0.4000000059604645px;fill-rule:evenodd"/>
            <path id="path689" d="M262.29 622.84 271.88 586.75 280.82 559.17 299.96 418.92 299.74 410.64 299.34 406.18 298.57 403.01 278.93 347.85 278.22 344.42 278.82 341.29 308.14 287.91 313.11 275.56 331.35 197.47 331.65 195.54 331.93 187.6 332.34 185.78 333.18 184.16 333.82 183.51 338.47 179.75 340.99 177.42 342.22 175.47 342.98 173.62 343.41 171.77 344.73 162.08 345.38 160.4 346.58 158.52 347.9 157.13 351.92 153.79 353.24 152.24 354.21 150.23 356.15 142.37 357.24 140.3 358.51 138.95 359.53 138.19 361.48 137.1 365.28 135.03 368.24 132.75 369.58 131.23 370.37 129.34 371.1 125.89 372.33 122.78 376.58 114.67 377.91 109.52 381.31 101.39 382.67 96.27 382.49 91.81 381.44 83.55 381.79 74.68 380.58 70.63 380.58 68.49 381.49 66.62 391.06 55.5" style="fill:none;stroke:blue;stroke-linejoin:bevel;stroke-width:1.399999976158142px"/>
        </g>
    </g>
</svg>