<?xml version="1.0" encoding="utf-8"?>
<!-- Generator: Adobe Illustrator 23.0.1, SVG Export Plug-In . SVG Version: 6.00 Build 0)  -->
<svg version="1.1"
	 id="svg2" inkscape:output_extension="org.inkscape.output.svg.inkscape" inkscape:version="0.92.2 (5c3e80d, 2017-08-06)" sodipodi:docname="Comunas_de_Medellin.svg" sodipodi:version="0.32" xmlns:cc="http://creativecommons.org/ns#" xmlns:dc="http://purl.org/dc/elements/1.1/" xmlns:inkscape="http://www.inkscape.org/namespaces/inkscape" xmlns:rdf="http://www.w3.org/1999/02/22-rdf-syntax-ns#" xmlns:sodipodi="http://sodipodi.sourceforge.net/DTD/sodipodi-0.dtd" xmlns:svg="http://www.w3.org/2000/svg"
	 xmlns="http://www.w3.org/2000/svg" xmlns:xlink="http://www.w3.org/1999/xlink" x="0px" y="0px" viewBox="0 0 557 699.7"
	 style="enable-background:new 0 0 557 699.7;" xml:space="preserve">
<style type="text/css">
	.st0{fill-rule:evenodd;clip-rule:evenodd;fill:#FFAC65;stroke:#666666;stroke-width:0.4;}
	.st1{fill-rule:evenodd;clip-rule:evenodd;fill:#FF9933;stroke:#666666;stroke-width:0.4;}
	.st2{fill-rule:evenodd;clip-rule:evenodd;fill:#ED8E2F;stroke:#666666;stroke-width:0.4;}
	.st3{fill-rule:evenodd;clip-rule:evenodd;fill:#669933;stroke:#666666;stroke-width:0.4;}
	.st4{fill-rule:evenodd;clip-rule:evenodd;fill:#72AB39;stroke:#666666;stroke-width:0.4;}
	.st5{fill-rule:evenodd;clip-rule:evenodd;fill:#7BB83D;stroke:#666666;stroke-width:0.4;}
	.st6{fill-rule:evenodd;clip-rule:evenodd;fill:#86C944;stroke:#666666;stroke-width:0.4;}
	.st7{fill-rule:evenodd;clip-rule:evenodd;fill:#EAC102;stroke:#666666;stroke-width:0.4;}
	.st8{fill-rule:evenodd;clip-rule:evenodd;fill:#0083DB;stroke:#666666;stroke-width:0.4;}
	.st9{fill-rule:evenodd;clip-rule:evenodd;fill:#008AE6;stroke:#666666;stroke-width:0.4;}
	.st10{fill-rule:evenodd;clip-rule:evenodd;fill:#0096FA;stroke:#666666;stroke-width:0.4;}
	.st11{fill-rule:evenodd;clip-rule:evenodd;fill:#999933;stroke:#666666;stroke-width:0.4;}
	.st12{fill-rule:evenodd;clip-rule:evenodd;fill:#B0B03B;stroke:#666666;stroke-width:0.4;}
	.st13{fill-rule:evenodd;clip-rule:evenodd;fill:#CC9933;stroke:#666666;stroke-width:0.4;}
	.st14{fill-rule:evenodd;clip-rule:evenodd;fill:#BA8C2F;stroke:#666666;stroke-width:0.4;}
	.st15{fill-rule:evenodd;clip-rule:evenodd;fill:#DBA538;stroke:#666666;stroke-width:0.4;}
	.st16{fill-rule:evenodd;clip-rule:evenodd;fill:#E5E5E5;stroke:#666666;stroke-width:0.4;}
	.st17{fill-rule:evenodd;clip-rule:evenodd;fill:#B2B2B2;stroke:#666666;stroke-width:0.4;}
	.st18{fill:none;stroke:#0000FF;stroke-width:1.4;stroke-linejoin:bevel;}
</style>
<sodipodi:namedview  bordercolor="#666666" borderopacity="1.0" gridtolerance="10.0" guidetolerance="10.0" id="base" inkscape:current-layer="limite_x0020_corregimientos" inkscape:cx="319.84874" inkscape:cy="593.67756" inkscape:pageopacity="0.0" inkscape:pageshadow="2" inkscape:snap-nodes="false" inkscape:window-height="1001" inkscape:window-maximized="1" inkscape:window-width="1920" inkscape:window-x="-9" inkscape:window-y="-9" inkscape:zoom="1" objecttolerance="10.0" pagecolor="#ffffff" scale-x="0.36458" showgrid="false">
	</sodipodi:namedview>
<polygon id="polygon34" class="st0" points="465.8,419.6 468.3,417.5 471.3,418.2 479,422 482.4,419.8 487.2,420.4 489.7,425.2 
	494.7,426.9 498.5,429.8 502,428.5 506.7,428.5 512.7,426.2 517.7,427.8 520,430.4 528.1,431.2 520.9,428.1 516.8,424 520.9,422 
	523,420.2 527.9,416.3 526.9,411.4 527.6,406.7 524.6,405.2 524.3,403.7 521.4,403.4 516.8,398.9 516.3,395.6 510.5,387.6 
	510.3,385 499.1,384.8 496.2,387.4 492.3,389.4 488.7,393.4 484.5,393 480.4,393.8 477.8,390.5 475.7,389 475.2,386.5 473.8,386.7 
	472.5,384.7 473,381.6 472,378.7 462.6,371.5 461.5,368.8 458.1,364.6 461.9,359.9 461.1,357.6 462.4,353.8 469.6,347.4 
	470.3,344.1 472.8,342.6 477.8,342.3 478.3,341.4 470.6,335 470.4,331.7 469.5,327.7 466,324.7 465.2,320.7 463.7,318.5 464,315.8 
	465.8,314.5 467.7,314.7 471.8,312.3 474.6,309.6 470.8,309.6 468.7,310.5 466,308.5 460,308.1 456,306.9 454.3,305.7 454.6,303.1 
	451.9,301 451.3,295.9 449.4,293.8 449.4,289.8 439.7,288.6 434.9,285.8 430.2,286.5 429.1,290.6 423.9,290.6 420.7,288.3 
	414.9,285.1 410.2,284.6 403.9,288.9 395.5,292.7 393.9,292.9 391.6,292.4 389.6,290.9 384.7,288.6 383.8,290.8 368.1,314.1 
	394.8,332.8 393.7,336.1 394.6,337.9 394.6,339.4 395,340.3 395,341.5 398.9,342.4 397,348 391.8,356.5 389.5,358 397.5,367 
	399.6,371.1 405.8,372.5 410.5,373 418.4,373 423.5,376.1 426,376.6 430,383.2 437.2,384.6 439.1,387.5 438.3,390.2 442.8,397.3 
	448.7,399.1 451.8,401.2 456,407.9 458.8,408 463.7,414.8 "/>
<polygon id="polygon36" class="st1" points="392.4,481 390.1,478.8 386,477.8 382.8,476.5 376.8,470.8 369.3,464.8 368.5,462 
	370.2,460.3 372.8,460.8 374.4,458.7 374.9,454.4 375.2,447.9 377.1,446 382.3,446 388.9,446.5 390.5,438.6 393.5,442.5 
	401.7,440.6 403.4,441.8 405.8,441.8 408.7,445.4 410.6,437.2 413.5,431.7 418.8,430.6 422.4,432.4 421.6,439.4 421.6,447 
	426.3,447 427.7,448.9 438.4,448.9 443.9,450.7 448.3,450.7 450.1,452.1 453.5,452.1 456.8,450.5 459.6,452.5 461.9,452.3 
	462.2,450.4 459.8,448.1 459.1,446.2 459.8,443.5 462.6,440.2 463.8,436.7 468.3,440.6 471.1,440.6 474.3,438.4 477.6,439.2 
	482.5,435.9 486.2,435.9 489.4,437.9 491.2,437.5 492.7,438.5 495,437.8 495.4,440.8 497,442.5 500.9,441.5 502.2,439.8 
	504.6,437.8 506.4,438.8 507.6,440.4 509.1,440.7 510.5,438.5 513.1,439 514.2,440.8 515.3,440.4 515.7,438.2 515.2,435.4 
	514,432.5 516.2,431.2 521.1,431.9 528.1,431.2 520,430.4 517.7,427.8 512.7,426.2 506.7,428.5 502,428.5 498.5,429.8 494.7,426.9 
	489.7,425.2 487.2,420.4 482.4,419.8 479,422 471.3,418.2 468.3,417.5 465.8,419.6 463.7,414.8 458.8,408 456,407.9 451.8,401.2 
	448.7,399.1 442.8,397.3 438.3,390.2 439.1,387.5 437.2,384.6 430,383.2 426,376.6 423.5,376.1 418.4,373 410.5,373 405.8,372.5 
	399.6,371.1 397.5,367 389.5,358 388.1,362.2 386.8,361 382.3,365.5 381.2,365 379.3,369 374.3,372.1 369.1,376.6 366.6,374.7 
	362.4,374.3 357.5,377.7 353.3,382.5 358.5,390.7 358.2,398.7 354.3,404 353.6,407.7 349.7,412 345.8,410 339.1,414.2 346.7,424 
	342.4,430.1 342,437.4 345.1,439.9 347.7,442.9 350.2,447.2 347.5,451.7 348.4,454.1 348.9,457.8 346.5,470 342.8,473.5 
	344.5,478.5 344.2,481.1 346.8,482.8 350.2,482.8 351.6,484.4 351.8,488.3 357.4,493.8 380.9,498.9 382.8,497.5 382.8,494.8 
	380.6,491.1 390.8,483.9 "/>
<polygon id="polygon38" class="st2" points="358.2,398.7 358.5,390.7 353.3,382.5 357.5,377.7 362.4,374.3 366.6,374.7 369.1,376.6 
	374.3,372.1 379.3,369 381.2,365 382.3,365.5 386.8,361 388.1,362.2 389.5,358 391.8,356.5 397,348 398.9,342.4 395,341.5 
	395,340.3 394.6,339.4 394.6,337.9 393.7,336.1 394.8,332.8 368.1,314.1 383.8,290.8 384.7,288.6 389.6,290.9 383.7,285.6 
	379.1,285.2 382.1,281.5 358.9,277.7 352.8,278.2 318.2,272.6 316.5,280.7 311.3,293.7 282.4,346.3 281.7,349.3 282.5,352.7 
	302.1,407.7 302.8,410.8 303.3,415.5 303.6,423.8 310.4,426.6 321.8,435.1 329.4,440.6 330.5,445.7 333.4,445.7 334.3,448.7 
	337.1,448.7 341.2,449.9 341.2,452.2 343.8,454.1 348.4,454.1 347.5,451.7 350.2,447.2 347.7,442.9 345.1,439.9 342,437.4 
	342.4,430.1 346.7,424 339.1,414.2 345.8,410 349.7,412 353.6,407.7 354.3,404 "/>
<polygon id="polygon40" class="st3" points="341.3,185.3 337.7,188.2 336.3,189.3 335.6,190.8 335.1,192.5 334.8,201.1 334.5,203.2 
	334,204.8 318.2,272.6 352.8,278.2 358.9,277.7 382.1,281.5 379.1,285.2 383.7,285.6 389.6,290.9 391.3,285.8 391.5,281.2 
	392.7,269.1 395.8,248.1 402.5,211.1 404.1,203.1 404.3,198.4 403.2,195.7 403.9,181 405,178.9 402.6,175.8 398.1,175.3 
	390.2,166.8 389.4,165.9 382,165.3 378.7,166.2 372.4,164.6 369.5,157.9 365.7,156.2 363,156.8 357.6,154.3 357.3,155.3 
	356.4,157.4 354.5,159.7 351.6,162 349.2,164.5 347.9,167 347.6,169.5 346.5,176.8 345.5,180.5 344.7,182.1 343.1,183.7 "/>
<polygon id="polygon42" class="st4" points="365.7,156.2 369.5,157.9 372.4,164.6 378.7,166.2 382,165.3 389.4,165.9 390.2,166.8 
	394,164.4 401.2,162.6 405.4,155.7 417,153.7 417.9,151.2 415.4,150.4 414.2,146.2 416.8,141.8 418.6,141.9 421,139.9 419.3,137.9 
	414.4,136.4 412.4,132.1 421.7,114.3 422.6,108.1 421.4,105.2 423.8,100.9 423.5,97.7 425.4,97.7 425.6,98.8 429.4,101.2 
	432.3,97.4 441.8,99.5 442.8,96.7 439.8,96.5 435.7,92.4 434.7,90.7 433.2,91.7 429.6,91.6 425.4,89.4 421.6,89 418.6,85.6 
	416.1,86.7 409,84.5 401.1,82.4 394.9,80 388.1,73.4 386.5,71.6 386,70.6 385.3,71.4 384.1,73.4 383.9,75.4 385.1,79.4 384.8,88.7 
	385.9,96.8 385.9,101.7 384.6,106.4 380.7,115.3 379.7,119.8 375.5,127.7 374.1,130.8 373.3,134.8 372.4,137 370.1,139 367.3,141.1 
	363.6,143 361.8,144 360.4,145.3 359.4,147 358.8,149.3 357.6,154.3 363,156.8 "/>
<polygon id="polygon44" class="st5" points="405,178.9 403.9,181 403.2,195.7 404.3,198.4 404.1,203.1 402.5,211.1 395.8,248.1 
	392.7,269.1 391.5,281.2 391.3,285.8 389.6,290.9 391.6,292.4 393.9,292.9 395.5,292.7 403.9,288.9 410.2,284.6 414.9,285.1 
	420.7,288.3 423.9,290.6 429.1,290.6 430.2,286.5 434.9,285.8 439.7,288.6 449.4,289.8 454.6,288.5 456.4,287.5 460.4,288.3 
	464.3,287.3 466.6,280.6 465.5,276.2 465.8,271.3 466.9,268 469.8,266.6 472.5,266.4 474.8,264.5 478,265.6 483,265.6 480.9,263.2 
	480.3,260.2 477.7,257.7 477.4,255.6 485.6,247.9 479.6,244.1 477.4,241.4 474.7,237.1 476.9,231.3 483.2,227.5 482.7,226.7 
	478.1,224.6 477.5,222.4 479.4,219.4 477.8,217 477.1,213.6 475.3,211.4 475.3,209.3 471.9,208.4 467.3,209.8 464.3,209.4 
	465.4,204.3 464.8,201.5 468.5,196.5 473.3,196.7 474.1,189.7 477,184.8 472.6,181.8 471.2,179.3 461.8,179.7 457.5,177.9 
	449.2,177.9 444.2,181.1 440.6,180.2 429.9,184.7 425.2,182.7 415.7,184.1 "/>
<polygon id="polygon46" class="st6" points="472.6,181.8 477,184.8 479.7,180.9 479.2,167.4 476.1,165.6 478.9,161.9 478.2,159.5 
	476.1,157.1 478.8,154.2 477.4,149.2 479.7,145.5 477.8,142.6 474.1,141 477,135.5 479.4,132.9 479,125.8 475.3,122 470.1,112.1 
	467.6,112.8 463.8,107.5 460,104.5 454.2,102.6 452,100.5 450.5,98 446.7,99.1 442.8,96.7 441.8,99.5 432.3,97.4 429.4,101.2 
	425.6,98.8 425.4,97.7 423.5,97.7 423.8,100.9 421.4,105.2 422.6,108.1 421.7,114.3 412.4,132.1 414.4,136.4 419.3,137.9 421,139.9 
	418.6,141.9 416.8,141.8 414.2,146.2 415.4,150.4 417.9,151.2 417,153.7 405.4,155.7 401.2,162.6 394,164.4 390.2,166.8 
	398.1,175.3 402.6,175.8 405,178.9 415.7,184.1 425.2,182.7 429.9,184.7 440.6,180.2 444.2,181.1 449.2,177.9 457.5,177.9 
	461.8,179.7 471.2,179.3 "/>
<polygon id="polygon48" class="st7" points="351.8,488.3 351.6,484.4 350.2,482.8 346.8,482.8 344.2,481.1 344.5,478.5 342.8,473.5 
	346.5,470 348.9,457.8 348.4,454.1 343.8,454.1 341.2,452.2 341.2,449.9 337.1,448.7 334.3,448.7 333.4,445.7 330.5,445.7 
	329.4,440.6 321.8,435.1 310.4,426.6 303.6,423.8 284.3,564.4 275.2,592.5 270.4,610.5 268.9,614.7 271.2,616.8 273.3,616.8 
	280.4,622.3 282.4,630.1 282.8,634.2 285.7,637.1 296.3,643.8 300.5,643.8 303.2,647.2 315,654.8 320.7,656.5 326.2,655.8 
	329.2,657.8 331.7,657.6 336.1,661.3 338.6,665.1 343.2,667 345.4,669 349.6,668 354.8,670.8 360,668.7 365.3,668.7 370.9,669.9 
	372.4,667.2 374.2,665.5 376.6,664.4 377.1,661.7 376.5,658.4 376.5,655.6 377.7,653.6 376.6,650.8 376.1,647.3 377.7,645.5 
	380.9,644.7 383.2,646.6 385.5,647.3 391.8,647.8 392.5,645.1 391.5,642.2 391.9,637.9 388.9,637.1 386,635.4 386.6,626.7 
	389.1,627.9 392.6,623.9 396.5,621.6 398,619.7 400.4,617.7 401.5,615.4 399.6,613.2 399.2,610.3 398.3,607.3 397.4,605 
	398.8,602.5 397.7,600.1 396.2,597.6 397.9,595.5 398.4,592.7 399.4,589.4 401.2,586.6 401.7,582 406.6,578 405.6,575 407.1,572 
	407.3,568.4 409,565.5 409,563.3 408.2,561.3 409.5,559.7 410.7,555.7 413,554.7 414.5,553.3 414.3,551.8 413.2,549.7 413.7,546.6 
	416.3,545.2 420.1,544.6 422.4,542.5 423.2,540.2 423.2,535.9 423.5,530.7 424.8,527.5 426.3,521.7 428,519.6 427.3,516 428,513.6 
	425.7,511.3 427.9,508.4 428.6,505.4 429.3,498.2 422.9,501.7 416.9,502.2 410.3,501.5 410.5,496.9 404.9,492 400.4,487.4 
	397.1,485.6 392.4,481 390.8,483.9 380.6,491.1 382.8,494.8 382.8,497.5 380.9,498.9 357.4,493.8 "/>
<polygon id="polygon50" class="st8" points="267.2,292.8 260.9,289.2 259.2,284.6 254.8,281 253.6,276.2 251.5,273.7 247.9,270.9 
	242.1,267.7 235.7,263.3 228.3,255.6 224,250.9 221.8,246.2 218.9,243.1 215.1,246.3 199.4,316.1 197.4,320.7 202.5,318.9 
	203.9,319.2 208.7,318.1 206.8,339.7 194.1,340 189,337.9 182.4,337.7 180.2,370.6 162,366.3 159.3,369.2 157.5,376.5 142.5,373.9 
	134.7,373.6 130.7,377.6 124.2,377.6 119.7,378.7 112,378.7 117,379.8 118.4,380.5 121,379.9 122.2,380.4 124.1,382.4 125.5,382.8 
	126.4,382.6 127.9,381.7 129.4,382.2 130.9,383.1 137.8,388 140.7,395.5 153.5,396 160.1,395.9 178.7,395.6 193.2,394.9 191.3,390 
	291.6,386.6 279.5,352.7 278.9,349.3 279.4,346.3 306.5,297 296.2,299.8 291.9,300.4 284.6,300.1 278.9,298.8 273.5,297.4 "/>
<polygon id="polygon52" class="st9" points="183.7,293.2 176.1,296.6 172.9,297.1 161.7,302 158,301.8 152.8,303.1 145.9,303.8 
	143,303.4 136.2,313.6 133.4,312.3 131,314 132.8,315.4 130,317.1 122.6,322.9 114.2,324.4 110.2,329.6 110,331.2 111.6,332.2 
	113.6,331.8 117,327.2 120.8,326.7 122.6,328.4 124.3,331.3 129.2,334.3 129.1,337.2 120.9,344.4 120.1,349.6 122.8,352.5 
	117,359.2 120.4,361.9 122.4,367.5 123.6,373.7 119.2,373.7 115.5,377.7 112,378.7 119.7,378.7 124.2,377.6 130.7,377.6 
	134.7,373.6 142.5,373.9 157.5,376.5 159.3,369.2 162,366.3 180.2,370.6 182.4,337.7 189,337.9 194.1,340 206.8,339.7 208.7,318.1 
	203.9,319.2 202.5,318.9 197.4,320.7 199.4,316.1 215.1,246.3 213.2,241.4 209.7,241.9 209.6,243.3 207,243 203.5,244.1 
	201.7,250.7 199.4,249.1 198.1,253.3 196.9,254.2 196.2,251.1 194.8,249.1 191.3,247.3 190.3,250.4 192.8,251.3 191.5,252 
	191.7,256 188.3,254.8 182.9,254.3 177.2,257.5 173.4,258 174.9,259.9 171.7,263.6 171.7,266.5 166.8,262.9 169.5,269.5 
	171.8,272.7 170.4,277.2 171.7,279.2 171.1,284.2 183.3,284 185.9,279.2 188.2,280.7 190.6,299.2 "/>
<polygon id="polygon54" class="st10" points="88.3,304.5 87.5,304.7 80.7,300 78.8,299.7 77.6,299.1 74.5,295.5 71.8,291.6 
	71.5,289 70,287.8 68.6,286.5 67.7,284.6 67.4,282.7 66.2,279.7 67.2,278.5 66.4,277.9 65.2,278 63.7,278.7 62.3,278.5 59.4,277.5 
	58.1,277.1 56.8,277.4 56.3,278.5 57.7,279.5 61.7,281.9 62.1,283.1 61.7,284.3 59.5,287.5 58.5,290.2 59.1,292.1 58.9,293.5 
	54.4,297.8 49.1,301.8 49.1,302.8 54.2,305.6 54.8,307.9 57.6,309.6 60.9,310.9 63,313 64.7,317.6 63.9,318.8 62.6,318.6 
	61.2,317.7 57.6,315.3 55.7,315.4 52.8,315.9 51.3,317.8 51,320.8 51.3,322.7 51.4,325.5 52.1,327.8 54.6,330.1 57.3,330.1 
	60.7,331 61.4,334 61.2,336.2 58.8,336.6 57,338.8 54.2,339.7 50.2,338.1 54,344.2 59.4,347.6 55.7,347.6 51.5,345.2 52.7,348.6 
	55.1,352.3 56.5,355.1 58.5,356.2 61.1,356.6 64.2,356.6 64.6,358.5 65.4,359.5 67,360.5 69.4,360.8 71.3,360 72.3,358.6 
	72.5,356.7 73.6,356.2 77.1,356.8 81.2,357.7 85.1,358.4 88.2,358.4 88.4,359.5 87.6,361 88.6,362.4 91.3,363.8 92.7,365.7 
	90.7,368.6 92.4,369.7 92.4,370.6 88.9,372.4 90.3,374.5 90.6,376.6 91.9,376.6 94.8,374.8 96.3,376.3 95.6,377.8 95.6,379 
	97.5,380.7 99.1,380.9 100.3,380.7 102.2,378.6 102.7,376.7 104.2,376.5 105.3,377.1 108.1,378.1 112,378.7 115.5,377.7 
	119.2,373.7 123.6,373.7 122.4,367.5 120.4,361.9 117,359.2 122.8,352.5 120.1,349.6 120.9,344.4 129.1,337.2 129.2,334.3 
	124.3,331.3 122.6,328.4 120.8,326.7 117,327.2 113.6,331.8 111.6,332.2 110,331.2 110.2,329.6 114.2,324.4 122.6,322.9 130,317.1 
	132.8,315.4 131,314 133.4,312.3 136.2,313.6 143,303.4 145.9,303.8 152.8,303.1 158,301.8 161.7,302 172.9,297.1 176.1,296.6 
	183.7,293.2 190.6,299.2 188.2,280.7 185.9,279.2 183.3,284 171.1,284.2 171.7,279.2 170.4,277.2 171.8,272.7 169.5,269.5 
	166.8,262.9 171.7,266.5 171.7,263.6 174.9,259.9 173.4,258 177.2,257.5 182.9,254.3 188.3,254.8 191.7,256 191.5,252 192.8,251.3 
	190.3,250.4 191.3,247.3 194.8,249.1 196.2,251.1 196.9,254.2 198.1,253.3 199.4,249.1 201.7,250.7 203.5,244.1 207,243 
	209.6,243.3 209.7,241.9 213.2,241.4 215.1,246.3 218.9,243.1 213.6,238.5 207.5,238.5 203.9,235 198.1,233.9 195.6,230.3 
	189.2,229.9 178.9,224.6 177,227.8 175,227.8 165.2,221.6 161.5,222.6 157.6,221.3 157.1,232.7 153.6,240.5 144.4,239.3 
	132.5,246.6 123,245.6 121,247.3 117,247.6 118.8,249 119.8,251 117.5,251.8 117.5,253.9 119.2,258.1 122.1,263.3 123.7,267.5 
	126.5,270.5 127.5,272.9 127.5,277.9 128.2,278.7 128.5,280.9 129.2,282.5 129.2,284.6 128.5,285.3 128.5,286.1 129.1,286.7 
	129.5,287.5 128.4,289.9 127.3,294.3 126.3,295.5 125,295.7 124.2,294.9 123.1,292.2 120.2,287.1 119.1,285.9 118.1,286.1 
	117,286.6 116,286.3 115.6,285.6 115.4,283.8 113.4,283.3 113.1,281.8 112.4,281 111.1,281.4 109.5,281.7 107.7,280.7 106.8,279.5 
	105.4,277.9 103.7,278.9 102.2,279.6 98.3,279.8 97.3,281.2 96.3,282.9 94.2,283.6 89.9,281.1 89.1,281.8 89.5,282.9 89.1,283.4 
	88.2,283.5 86.1,283.3 85.6,283.5 85.9,284.3 88.7,287.6 89.2,289 88.8,292.2 88.3,293.6 88.8,294.4 90.8,297.1 90.8,298.1 
	89.1,300.8 "/>
<polygon id="polygon56" class="st11" points="280.8,415.4 270,414.8 269.9,420.9 264.1,421.9 252.6,421.7 250,422.3 238.2,422.3 
	235.8,423.9 234.2,431.2 230.8,433.7 231.4,436.7 231.4,446.4 229.3,458.9 217.7,516.2 217.5,519.4 214.4,514.3 212.2,516.5 
	206.3,518.2 203.3,516.9 202,518.6 202.5,521.9 202.1,535.5 204.8,539.8 202,542.8 197.2,543.4 201,549.1 196.6,550 197.8,551.8 
	194.1,554.5 200.9,563.6 200.3,565.4 202.3,566.8 205,567.7 207.5,568.5 208.3,569.4 208.8,570.4 210.9,571.8 213.5,573.7 
	214.1,575.4 214.3,577.5 213.4,581.1 214.2,582.7 216.7,583.8 217.7,584.7 217.4,586.8 215.3,589.3 214.2,590.8 214.9,592.1 
	217.5,592.9 220.7,593.4 224,594.1 229.4,595.5 232.1,591.8 236.9,590.3 247.8,585.2 250.5,584.6 256.6,589.6 272.4,592.2 
	281.3,564.4 300.6,423.8 300.6,423.1 296.8,421.9 297,419.3 "/>
<polygon id="polygon58" class="st12" points="149.7,444.5 148.8,446.2 151,448.6 149.5,450.7 146.1,450.7 143.3,449.2 141.6,452.4 
	143.6,453.5 143.6,454.7 141.4,454.7 140.6,456 143.4,458.5 141.6,462.8 138.3,460 137.7,463.3 135.5,463.8 133.3,461.4 
	121.5,463.2 119.1,462.7 115.8,461.3 111.2,462.2 111.6,464.5 113.5,466.6 114.6,468.2 116.5,470.1 119,470.5 120.7,473.5 
	123,474.9 127.6,474.6 129.6,476.4 131.9,475.8 134.6,474.7 136.9,474.5 138.3,475.7 138.6,478.2 140.3,479.9 146.1,479.6 
	149.3,482.8 149.8,484.3 151.2,485.8 150.4,488.7 152.5,490.6 155.4,491.5 155.6,494.3 154.5,496.4 156.3,498.1 156.3,502.8 
	155.3,504.2 154.3,505.8 152.8,507.4 152.6,508.8 153.5,509.6 156,510.9 162.8,517.3 162.8,519.5 163.6,520.7 165.2,521.6 
	163.5,522.7 158.4,525.5 157.8,526.1 157.5,527 158.5,528.2 164.5,531.8 165.8,532.6 166.1,533.8 164.7,535.4 162,537.6 160,536.3 
	158.2,536 155.6,536.5 152.2,536.3 147.6,537.8 145.8,538.1 148.2,539.4 152.4,539.8 155,541.3 157.6,544.3 159.9,545.2 
	162.1,546.8 164.5,551.7 165.5,552.3 166.7,551.7 168.8,548.5 171.2,548 173.4,548.6 174.8,549.5 174.6,551.6 177.9,556.1 
	178.5,557.3 178.3,559.2 178.5,560.7 179.9,561.8 181.7,561 183.1,561 184,562 184.3,563.3 186,563 187.7,562 189.5,562.6 
	192.4,562.8 196.3,562.5 198.8,563.8 200.3,565.4 200.9,563.6 194.1,554.5 197.8,551.8 196.6,550 201,549.1 197.2,543.4 202,542.8 
	204.8,539.8 202.1,535.5 202.5,521.9 202,518.6 203.3,516.9 206.3,518.2 212.2,516.5 214.4,514.3 217.5,519.4 217.7,516.2 
	229.3,458.9 231.4,446.4 231.4,436.7 230.8,433.7 234.2,431.2 235.8,423.9 238.2,422.3 250,422.3 252.6,421.7 264.1,421.9 
	269.9,420.9 270,414.8 280.8,415.4 297,419.3 296.8,421.9 300.6,423.1 300.3,415.5 299.9,410.8 299.1,407.7 291.6,386.6 191.3,390 
	193.2,394.9 178.7,395.6 160.1,395.9 153.5,396 140.7,395.5 137.8,388 130.9,383.1 130.6,385.8 129.4,387.8 129.4,389 131.4,389.5 
	133.2,390.6 134.6,391.6 136.3,393.5 136.5,394.4 136.4,395.1 135.9,395.6 135.1,395.7 134.4,395.4 133.3,394.6 131.6,394.4 
	130.2,395.1 128.6,393.7 125.8,393.7 122.5,392.5 118.7,392.5 116.1,390.4 113.7,387.6 113.2,384.7 109.5,382.7 108.2,382.7 
	106.6,381.9 103.5,381.7 101.5,381.7 100.5,382.5 100.4,383.5 103.2,383.8 106.2,384.7 107.9,385.6 109,387.3 109,389.1 
	108.3,390.9 107.4,393.6 106.5,396.5 105,398 102.6,398.6 98.9,398.2 96.8,399.5 93.8,399.9 92.8,401.4 93.4,402.6 95.4,402.1 
	98.2,402.8 100.4,403.5 103,403.8 105.9,403.4 109,403.2 110.9,403.8 115.4,406.8 117.3,406.6 119,407.7 121.7,408.9 124.8,408.6 
	126.6,409.6 126.1,412 123.9,414.3 123.5,416.4 121.6,418.4 121.8,419.4 122.6,420.5 122.5,422.2 124.9,423.6 126.7,424.1 
	129.6,424.4 131.2,424.7 130.5,425.4 128.7,425.7 126.9,426.2 122.7,426.6 120.8,427.6 120,428.5 120.7,429.6 122.7,430.4 
	124.6,431.6 125.6,433.2 123.9,434.3 122,436 122.7,438.9 123.5,439.8 126.7,439.5 128.4,440.8 128.6,442.5 130.9,442.9 135,441.6 
	136.3,442.5 138.3,441.4 138.5,440.2 139.3,438.5 141.4,437.1 144.3,436.8 145.5,432.3 147.5,431.7 148.5,432.6 149.1,433.4 
	149.6,435.6 149.8,438.3 149.5,441.6 152.3,441.6 153.4,443.5 152.4,445.3 "/>
<polygon id="polygon60" class="st13" points="86.3,209.4 89.1,211.1 89.6,213.8 92.5,216.3 94.3,216.8 97,216.6 94.3,227.3 
	97.4,229.7 100.9,233.3 104.6,236 106,236.6 107.9,236.6 108.5,238.6 107.5,244.4 106.3,247.7 105.7,248.8 105.7,249.4 106.4,249.7 
	108.3,249.6 110.9,249 113.6,248.6 115.4,247.9 117,247.6 121,247.3 123,245.6 132.5,246.6 144.4,239.3 153.6,240.5 157.1,232.7 
	157.6,221.3 161.5,222.6 165.2,221.6 175,227.8 177,227.8 178.9,224.6 189.2,229.9 195.6,230.3 198.1,233.9 203.9,235 207.5,238.5 
	213.6,238.5 218.9,243.1 221.8,246.2 224,250.9 228.3,255.6 235.7,263.3 242.1,267.7 247.9,270.9 251.5,273.7 253.6,276.2 
	254.8,281 259.2,284.6 260.9,289.2 267.2,292.8 273.5,297.4 284.6,300.1 291.9,300.4 296.2,299.8 306.5,297 308.3,293.7 
	313.6,280.7 315.3,272.1 304.6,270.7 295.1,265.6 295.9,260.3 299.5,252.7 282.6,239.9 282.4,235.5 287.3,229.7 287.9,226.6 
	287.4,224.3 290.4,221.4 287.8,218.6 294.9,211.6 299,215.7 303.3,218.5 308.4,213.6 303.1,208.5 307.4,205.7 307.7,202.8 
	313.6,204.3 316.1,204.3 316,202.5 312.8,201.3 310.9,201.9 305.2,197.3 302,197.6 296.7,192 294.4,192.4 292.4,190.1 288.5,189.5 
	280.3,184.6 272.2,183.3 264.5,179.1 263.2,176.7 263.2,173.4 260.9,173.4 259,170.5 255.3,168.6 251.6,164.7 253,161.6 
	253.5,156.1 257.9,153.7 260.1,151.3 255.3,147.5 251.8,147 249.3,144.9 249.4,142.5 247.5,140.1 245.6,140.1 244.9,141.4 
	242.6,142.7 240.9,141.4 237.5,137.5 235.5,133.8 233.3,133.8 230.4,136.4 228.6,136.8 225.7,134.7 224.6,137.7 221.4,137.4 
	220.5,138.5 218.6,138.7 215.6,138 211.5,138.6 211.1,142.3 207.9,142.3 206.1,143.2 206.1,145.8 205.4,147.6 203.8,150.1 
	201.5,151.7 194.7,151.7 193.9,154.4 191.6,155.3 190.5,154.2 189.2,154.2 187.8,155.4 184.3,155.4 181.6,158 179.6,158.7 
	173.5,157.8 172,157 169.6,154.8 168.6,152.1 163.5,146.5 163.5,144.1 162.5,142.6 159.6,143.6 158.4,142.9 155.8,144.2 
	154.1,143.9 148.7,149.5 148,149.5 146.6,148.7 145.7,149.1 145.2,151.6 143.4,150.7 142.7,151.1 142.3,154.5 141,156.6 
	136.1,160.4 132.9,164.6 128.9,168.4 124.4,170.3 123.5,171.4 123.3,172.6 123.6,175 123,176.2 120.3,178.9 116.8,180.6 
	113.7,181.7 109.7,182.6 99.9,182.2 96,182.4 94.2,183.2 93,184.6 91.6,186.4 89.1,188.3 86,189.7 82.5,190.6 82.5,195.2 
	83.4,198.8 85.6,203.8 84.4,206.7 83.6,207.6 "/>
<polygon id="polygon62" class="st14" points="382.3,71.4 387.3,65.1 382.5,62.1 380.6,61.5 352.6,62.9 346.2,59.6 342.9,58.7 
	339.4,59.6 337,61.8 333.4,61.5 327.9,67.7 320.5,68.7 318.1,79.2 317.7,91.2 319.8,91.6 319.9,95.2 330.8,95.1 330.8,95.2 
	332.4,103.1 326.5,115.4 324.5,114.7 322.3,120.1 316.7,119.4 313.7,122.8 315.1,126.6 312.7,129.7 300.2,168.9 289.6,165.9 
	285.5,176.6 280.3,184.6 288.5,189.5 292.4,190.1 294.4,192.4 296.7,192 302,197.6 305.2,197.3 310.9,201.9 312.8,201.3 316,202.5 
	316.1,204.3 313.6,204.3 307.7,202.8 307.4,205.7 303.1,208.5 308.4,213.6 303.3,218.5 299,215.7 294.9,211.6 287.8,218.6 
	290.4,221.4 287.4,224.3 287.9,226.6 287.3,229.7 282.4,235.5 282.6,239.9 299.5,252.7 295.9,260.3 295.1,265.6 304.6,270.7 
	315.3,272.1 332.3,201.1 332.5,199.2 332.9,192.8 333.3,190.9 334,189.2 335.1,187.9 340.2,183.7 342.3,181.7 343.7,179.4 
	344.6,176 345.2,169.6 345.6,167.2 346.7,164.6 348.7,162 351.5,159.7 353.7,157.5 355.3,154.8 357.1,147.2 358.1,145.2 
	359.4,143.7 361.3,142.2 364.4,140.5 367.3,138.7 369.6,136.8 371.1,134.9 372.3,130.3 373.3,127.7 377.5,119.7 378.8,114.6 
	382.2,106.4 383.5,101.2 383.2,96.3 382.3,88.6 382.6,79.8 381.4,75.5 381.5,73.2 "/>
<polygon id="polygon64" class="st15" points="260.1,151.3 257.9,153.7 253.5,156.1 253,161.6 251.6,164.7 255.3,168.6 259,170.5 
	260.9,173.4 263.2,173.4 263.2,176.7 264.5,179.1 272.2,183.3 280.3,184.6 285.5,176.6 289.6,165.9 300.2,168.9 312.7,129.7 
	315.1,126.6 313.7,122.8 316.7,119.4 322.3,120.1 324.5,114.7 326.5,115.4 332.4,103.1 330.8,95.2 319.9,95.2 319.8,91.6 
	317.7,91.2 318.1,79.2 320.5,68.7 303.2,67.5 298.8,66.1 295.9,68.5 288.1,69.5 276.4,75.2 269.2,73.8 261.6,74.4 258.5,72.7 
	254.5,74.8 254.5,78 252.3,80.7 252,82 256.4,85.7 257.2,87 256.7,90.4 260.4,92.7 265.3,95 266.1,98.8 265.4,101.9 264.4,104.5 
	262.6,104.8 259.7,104.1 257,104.6 255.5,105.7 254.4,107.7 254.4,114.2 255.7,115.8 255.4,118.5 253,120.9 252.3,126.6 
	254.2,128.1 254.5,129.8 252.3,132.3 251.7,135.5 249,136.6 246.4,138.5 245.6,140.1 247.5,140.1 249.4,142.5 249.3,144.9 
	251.8,147 255.3,147.5 "/>
<path id="path66" inkscape:connector-curvature="0" class="st16" d="M10.9,322.7l-6.2,1.1l-3.9-0.6v204.1l4.8-0.2l8.3,2l6.1,2.7
	l3,1.8l1.8,1.7l2.1,3.5l2,4.8l5,8l5.9,5.2l8.3,3.3l4.4,2.9l3.7,4.7l1.3,2.5l0.4,4.4l1.4,3.5l1.8,3.4l5.4-2.1l7-0.8l5.7,1.3l13.8-0.3
	l9,0.4l4.4,1.1l4.1-0.5l4.3-2.3l3.6,2.4l2.2,2.7l1.8,5.7l2,11.5l2.7,6.2l0.5,3.8l1.5,4.8l3.8,6.5l5.7,6.2l7.9,7.4l6.1,4.4l1.4,0.9
	l1.4-0.4l0.6-1.8l0.3-2.1l0.9-2.4l2.6-2.8l4-1l6,0.9l4,2.6l6.1,0.2l4.5-0.9l5.5-0.2l2.4-2l1.5-2.6l3.1-1.8l3-0.6l3.9-1l3.1-0.5
	l7.9-4l6.1-5.2l1.4-1.6l2.4-4.6l4.7-13.2l-5.4-1.4l-3.3-0.7l-3.2-0.5l-2.6-0.7l-0.6-1.3l1-1.5l2.1-2.5l0.2-2.1l-1-0.9l-2.5-1.1
	l-0.8-1.6l0.9-3.6l-0.2-2.1l-0.6-1.8l-2.6-1.9l-2.2-1.4l-0.4-1l-0.8-0.8l-2.5-0.9l-2.7-0.8l-2-1.4l-1.5-1.6l-2.5-1.3l-3.9,0.3
	l-2.9-0.2l-1.8-0.6L186,563l-1.8,0.4L184,562l-0.9-1h-1.4l-1.8,0.8l-1.3-1l-0.3-1.5l0.2-1.9l-0.6-1.2l-3.3-4.5l0.2-2l-1.3-1
	l-2.2-0.6l-2.4,0.5l-2,3.2l-1.2,0.7l-1-0.6l-2.4-4.9l-2.2-1.6l-2.3-0.9l-2.6-2.9l-2.6-1.5l-4.3-0.4l-2.4-1.3l1.9-0.3l4.6-1.5
	l3.3,0.2l2.7-0.5l1.8,0.3l2,1.3l2.7-2.2l1.5-1.6l-0.3-1.2l-1.3-0.8l-6-3.6l-0.9-1.2l0.2-1l0.7-0.5l5.1-2.9l1.7-1.1l-1.6-0.9
	l-0.8-1.2v-2.2l-6.8-6.4l-2.6-1.2l-0.9-0.9l0.2-1.3l1.6-1.6l0.9-1.6l1-1.4v-4.7l-1.8-1.7l1.1-2.1l-0.3-2.8l-2.8-0.9l-2.1-2l0.8-2.8
	l-1.4-1.5l-0.5-1.5l-3.2-3.1l-5.8,0.2l-1.6-1.7l-0.3-2.5l-1.4-1.2l-2.2,0.2l-2.7,1.1l-2.4,0.5l-2-1.7l-4.5,0.2l-2.3-1.3l-1.7-3.1
	l-2.5-0.4l-1.9-1.9l-1.1-1.6l-1.8-2.1l-0.4-2.3l4.6-0.9l3.3,1.3l2.4,0.6l11.8-1.8l2.2,2.4l2.2-0.4l0.6-3.3l3.3,2.8l1.9-4.3l-2.8-2.4
	l0.8-1.4h2.2v-1.1l-2-1.1l1.7-3.2l2.8,1.5h3.5l1.4-2.1l-2.2-2.4l0.9-1.7l2.7,0.8l1-1.7l-1.1-1.9h-2.8l0.3-3.3l-0.2-2.7l-0.6-2.1
	l-0.6-0.8l-1-0.9l-1.9,0.6l-1.2,4.5l-2.9,0.3l-2.1,1.4l-0.9,1.6l-0.2,1.2l-1.9,1.1l-1.4-0.9l-4,1.2l-2.3-0.4l-0.2-1.7l-1.7-1.3
	l-3.2,0.3l-0.8-0.9L122,436l1.9-1.7l1.7-1.1l-1-1.6l-1.9-1.2l-2-0.8l-0.7-1.1l0.8-0.9l2-1.1l4.2-0.4l1.8-0.5l1.8-0.3l0.7-0.7
	l-1.6-0.3l-2.9-0.3l-1.8-0.5l-2.4-1.5l0.2-1.7l-0.8-1.1l-0.2-1l1.9-2.1l0.4-2l2.2-2.3l0.6-2.4l-1.9-1l-3.1,0.3l-2.7-1.2l-1.6-1.2
	l-2,0.2l-4.5-3l-1.9-0.6l-3.1,0.2l-2.9,0.4l-2.7-0.3l-2.2-0.8l-2.8-0.6l-2,0.4l-0.6-1.2l1.1-1.5l3-0.4l2.1-1.3l3.7,0.4l2.3-0.6
	l1.5-1.6l0.9-2.9l0.9-2.6l0.7-1.8v-1.8l-1.2-1.7l-1.6-1l-3-0.9l-2.8-0.3l0.2-1l1-0.8h2l3,0.2l1.6,0.8h1.4l3.6,2l0.5,2.9l2.4,2.8
	l2.6,2h3.8l3.2,1.3h2.8l1.7,1.3l1.4-0.7l1.7,0.2l1.1,0.8l0.7,0.3l0.8-0.1l0.5-0.4l0.1-0.7l-0.2-0.9l-1.7-1.9l-1.3-1l-1.8-1.1
	l-2.1-0.5v-1.2l1.2-2l0.4-2.7l-1.6-0.9l-1.5-0.5l-1.5,0.9l-0.9,0.2l-1.4-0.4l-1.9-2l-1.2-0.5l-2.5,0.6l-1.4-0.7l-5.1-1.1l-3.8-0.6
	l-2.8-1l-1.1-0.6l-1.5,0.2l-0.4,1.9l-2,2.1l-1.2,0.2l-1.6-0.2l-1.9-1.7v-1.2l0.7-1.5l-1.5-1.5l-2.9,1.8h-1.3l-0.3-2.1l-1.4-2.1
	l3.5-1.8v-0.9l-1.7-1.1l2-2.9l-1.5-1.9l-2.7-1.4l-1-1.4l0.9-1.6l-0.3-1.1h-3.1l-3.9-0.7l-4.1-1l-3.5-0.6l-1,0.6l-0.2,1.8l-1.1,1.4
	l-1.9,0.8l-2.3-0.2l-1.6-1l-0.8-1l-0.5-1.9h-3.1l-2.6-0.4l-1.9-1.2l-1.4-2.7l-2.4-3.8l-1.3-3.4l4.2,2.4h3.7l-5.4-3.4l-3.8-6l4.1,1.6
	l2.8-1l1.8-2.2l2.4-0.4l0.2-2.2l-0.7-3.1l-3.4-0.9h-2.8l-2.5-2.3l-0.8-2.3l0-2.8H37.7l-5.1,0.9l-3.9,1.1l-3.5-0.3l-4.6-1.7
	L10.9,322.7z M62.6,461.6l-3.1-0.6l-1.2-0.2l-0.8-0.4l0-1.4l0.9-0.8h2l1.1,0l1.7-0.1l2,0.5l1.2-0.2l-0.4-0.9l0.9-1.8l1-1.2l0.6,0.8
	l2.4,2.1l0.3-0.8l0.2-1.1l0.3-1.5l0.5,0.2l1.5,0.8l1.9-0.2l1.7,0.3l2.6,1.3l0.6,1.1v1.5h-1.3l-1.1-0.2l-2-0.4l-1.5,0.1l-2.1,0.2
	l-0.6,1.2l-1.3,2.8l-1,1.1l-1.1,0.1l-1.2,0.4l-0.4-0.6l-0.4-1.3L66,461l-1.1,0.2l-0.9,0L62.6,461.6z M38.3,345.1l-1.7,0.9l-1.1,0
	l-0.5-1v-1.5l0.2-1.8l0.2-1.5l0.8-1.6l2-0.3l0.8,0.7l1.5,0.4l1.6,1.2l1.1,0.4l0.4-1.8l2.7,0.2l1.5,0.1l1.2,0.7l1.5,0.8l1.2,0.9
	l0.5,0.8l-0.2,1.2l-0.6,0.4H51l-0.4-0.4l-0.5,0.3l-0.8,0.6l-0.7,0.3l-0.5-0.3l-0.5-0.8l-2-0.7l-1.8-0.3l-1.8-0.1l-1.1,0.4l-1.6,1.1
	L38.3,345.1z M64.7,414.3l-1.2-1.7l1.2,0.7l1.2-0.5l1.2-1.7l0.5-1.1l0.9-0.4l1-0.1l0.2-1l0.2-0.4l0.6-0.2l1.5,0.5l1,0.5l0.9,0
	l1.1-0.6l1.2-0.6l0.9-0.2l1.1,1.4l1.5,2.6l-2.2,2l-2.1-0.1l-0.6,0.4h-1.1l-0.5,0.6l-0.7,0.6h-0.9l-0.7-0.2l-0.4-0.1H69l-0.8,0.7
	l-0.9,0.2l-1.2-0.2L64.7,414.3z M128.7,536.7l-0.2-2l0-2.6l1.2,0.1l1.3,0.1l1.1,0.1l1.1,0l1.2,0.4v0.9l-0.6,0.6l-0.3,1.3l-0.8,0.3
	l-2,0.8H128.7z"/>
<polygon id="polygon68" class="st16" points="104.6,236 100.9,233.3 97.4,229.7 94.3,227.3 92,226.6 88.7,227 86.3,226.6 84.7,226 
	82.2,226.3 80.1,226.3 78.6,225 77.4,223.2 75.6,221.9 70.6,219.2 69.2,218.7 67.8,218.7 66.8,219.4 65.6,221.4 64.2,222.7 
	62.6,223.5 59.3,220.9 57.7,220.9 56.5,222.6 55.5,223.1 53.1,222.5 50.1,222.9 47.2,223.6 44.3,221.8 43.4,220.4 42.2,219.2 
	41.1,219.2 39.8,220.2 37.9,221.8 36.9,222.1 35.1,221.7 33.2,223 30.3,224.1 27.5,223.7 25.1,224.1 22.6,224.6 20.9,224.8 
	19.8,224.3 19.7,223.2 20.8,222 21.5,220.3 19,219.6 17,217.8 16.2,215.2 13.8,213.4 12.7,211.6 12.7,209.8 13.6,208.1 14.5,207 
	14.5,205.9 15.5,204.4 16.4,204.4 17.6,205.8 19,206.6 21.3,206.5 23.3,206 25.2,207.4 23.7,201.1 23.7,200 24.6,199.6 28.4,200.2 
	29.6,201.5 30.2,203.3 30.9,204.7 37.2,204.7 39,206.4 41.2,206.8 42.9,206.8 45.1,205.9 47.1,204.9 49.6,203.9 51.7,203.7 
	53.4,204.1 55,206.6 56.2,210.8 57.1,211.7 58.7,211.7 61,211.4 64.7,211.4 67.4,209.7 71.7,211.4 73.9,211.1 77.7,208.3 80,207.6 
	83.6,207.6 84.4,206.7 85.6,203.8 83.4,198.8 82.5,195.2 82.5,190.6 86,189.7 89.1,188.3 91.6,186.4 93,184.6 94.2,183.2 96,182.4 
	99.9,182.2 109.7,182.6 113.7,181.7 116.8,180.6 120.3,178.9 123,176.2 123.6,175 123.3,172.6 123.5,171.4 124.4,170.3 128.9,168.4 
	132.9,164.6 136.1,160.4 141,156.6 142.3,154.5 142.7,151.1 143.4,150.7 145.2,151.6 145.7,149.1 146.6,148.7 148,149.5 
	148.7,149.5 154.1,143.9 155.8,144.2 158.4,142.9 159.6,143.6 162.5,142.6 163.5,144.1 163.5,146.5 168.6,152.1 169.6,154.8 
	172,157 173.5,157.8 179.6,158.7 181.6,158 184.3,155.4 187.8,155.4 189.2,154.2 190.5,154.2 191.6,155.3 193.9,154.4 194.7,151.7 
	201.5,151.7 203.8,150.1 205.4,147.6 206.1,145.8 206.1,143.2 207.9,142.3 211.1,142.3 211.5,138.6 215.6,138 218.6,138.7 
	220.5,138.5 221.4,137.4 224.6,137.7 225.7,134.7 228.6,136.8 230.4,136.4 233.3,133.8 235.5,133.8 237.5,137.5 240.9,141.4 
	242.6,142.7 244.9,141.4 245.6,140.1 246.4,138.5 249,136.6 251.7,135.5 252.3,132.3 254.5,129.8 254.2,128.1 252.3,126.6 
	253,120.9 255.4,118.5 255.7,115.8 254.4,114.2 254.4,107.7 255.5,105.7 257,104.6 259.7,104.1 262.6,104.8 264.4,104.5 
	265.4,101.9 266.1,98.8 265.3,95 260.4,92.7 256.7,90.4 257.2,87 256.4,85.7 252,82 252.3,80.7 254.5,78 254.5,74.8 252.9,71.2 
	249.9,70.5 242.4,75.2 239.6,76.7 233.9,77.3 230.6,78.6 224.4,77.7 218.8,80.7 213.8,80.7 208.6,83.4 204.4,83.4 199.7,82.6 
	194.7,81.7 190.2,77.3 187.5,76.5 177.9,76.9 174.1,75.4 170.8,71.6 157.9,61.5 143.4,56.3 134.4,53.7 130.1,53.3 125.7,54.6 
	121.4,55.5 115.8,54 108.9,52.6 101.6,52 93.6,52.1 83.9,54 79.9,54.4 77.2,53.6 70.3,47.8 64,46.7 57.6,42.7 49.6,39.6 45.4,38.7 
	38.8,37.6 35.9,36.2 33,32.6 30.5,27.8 24.8,21.7 21.3,19.3 17.9,18.3 12.6,17.8 8.4,16.5 1.9,7 0.8,5.5 0.8,323.2 4.7,323.8 
	10.9,322.7 20.7,322.7 25.2,324.4 28.7,324.7 32.6,323.6 37.7,322.7 51.3,322.7 51,320.8 51.3,317.8 52.8,315.9 55.7,315.4 
	57.6,315.3 61.2,317.7 62.6,318.6 63.9,318.8 64.7,317.6 63,313 60.9,310.9 57.6,309.6 54.8,307.9 54.2,305.6 49.1,302.8 
	49.1,301.8 54.4,297.8 58.9,293.5 59.1,292.1 58.5,290.2 59.5,287.5 61.7,284.3 62.1,283.1 61.7,281.9 57.7,279.5 56.3,278.5 
	56.8,277.4 58.1,277.1 59.4,277.5 62.3,278.5 63.7,278.7 65.2,278 66.4,277.9 67.2,278.5 66.2,279.7 67.4,282.7 67.7,284.6 
	68.6,286.5 70,287.8 71.5,289 71.8,291.6 74.5,295.5 77.6,299.1 78.8,299.7 80.7,300 87.5,304.7 88.3,304.5 89.1,300.8 90.8,298.1 
	90.8,297.1 88.8,294.4 88.3,293.6 88.8,292.2 89.2,289 88.7,287.6 85.9,284.3 85.6,283.5 86.1,283.3 88.2,283.5 89.1,283.4 
	89.5,282.9 89.1,281.8 89.9,281.1 94.2,283.6 96.3,282.9 97.3,281.2 98.3,279.8 102.2,279.6 103.7,278.9 105.4,277.9 106.8,279.5 
	107.7,280.7 109.5,281.7 111.1,281.4 112.4,281 113.1,281.8 113.4,283.3 115.4,283.8 115.6,285.6 116,286.3 117,286.6 118.1,286.1 
	119.1,285.9 120.2,287.1 123.1,292.2 124.2,294.9 125,295.7 126.3,295.5 127.3,294.3 128.4,289.9 129.5,287.5 129.1,286.7 
	128.5,286.1 128.5,285.3 129.2,284.6 129.2,282.5 128.5,280.9 128.2,278.7 127.5,277.9 127.5,272.9 126.5,270.5 123.7,267.5 
	122.1,263.3 119.2,258.1 117.5,253.9 117.5,251.8 119.8,251 118.8,249 117,247.6 115.4,247.9 113.6,248.6 110.9,249 108.3,249.6 
	106.4,249.7 105.7,249.4 105.7,248.8 106.3,247.7 107.5,244.4 108.5,238.6 107.9,236.6 106,236.6 "/>
<polygon id="polygon70" class="st16" points="0.8,527.3 0.8,618.9 3.9,618.5 5.1,618.1 5.7,619.2 6.5,620.1 7.8,620.4 9,619.7 
	10.3,619.5 11.3,618.8 12,617.9 13,617.6 14.9,618.9 14.8,619.9 14.9,620.6 15.9,620.3 16.9,620.5 17.7,621 18,622.2 16.1,624.4 
	17.2,626.3 17.7,629.2 18.6,632 19,634 18,635.4 17.6,637 18.6,638.1 20.5,639.2 22.7,640.6 23.2,642.4 24.2,644.6 26.1,646.3 
	26.7,649.9 27.8,651.5 28.8,649.5 34.4,643.8 39.4,637.8 45.9,634 51,627.5 54.2,626.2 59.9,625.2 61.4,623.5 62.8,619.4 
	66.3,614.8 71.4,604.6 72.2,600.4 70.4,596.8 65,591 61.2,581.3 59.3,577.8 58,574.3 57.6,569.9 56.3,567.5 52.5,562.8 48.1,559.9 
	39.8,556.7 33.9,551.5 28.9,543.5 27,538.8 24.8,535.2 23,533.6 19.9,531.8 13.9,529.1 5.6,527.1 "/>
<polygon id="polygon72" class="st16" points="493.2,115.7 490.3,115.7 486.9,118.3 484.6,118.6 479,125.8 479.4,132.9 477,135.5 
	474.1,141 477.8,142.6 479.7,145.5 477.4,149.2 478.8,154.2 476.1,157.1 478.2,159.5 478.9,161.9 476.1,165.6 479.2,167.4 
	479.7,180.9 477,184.8 474.1,189.7 473.3,196.7 468.5,196.5 464.8,201.5 465.4,204.3 464.3,209.4 467.3,209.8 471.9,208.4 
	475.3,209.3 475.3,211.4 477.1,213.6 477.8,217 479.4,219.4 477.5,222.4 478.1,224.6 482.7,226.7 483.2,227.5 476.9,231.3 
	474.7,237.1 477.4,241.4 479.6,244.1 485.6,247.9 477.4,255.6 477.7,257.7 480.3,260.2 480.9,263.2 483,265.6 478,265.6 
	474.8,264.5 472.5,266.4 469.8,266.6 466.9,268 465.8,271.3 465.5,276.2 466.6,280.6 464.3,287.3 460.4,288.3 456.4,287.5 
	454.6,288.5 449.4,289.8 449.4,293.8 451.3,295.9 451.9,301 454.6,303.1 454.3,305.7 456,306.9 460,308.1 466,308.5 468.7,310.5 
	470.8,309.6 474.6,309.6 471.8,312.3 467.7,314.7 465.8,314.5 464,315.8 463.7,318.5 465.2,320.7 466,324.7 469.5,327.7 
	470.4,331.7 470.6,335 478.3,341.4 477.8,342.3 472.8,342.6 470.3,344.1 469.6,347.4 462.4,353.8 461.1,357.6 461.9,359.9 
	458.1,364.6 461.5,368.8 462.6,371.5 472,378.7 473,381.6 472.5,384.7 473.8,386.7 475.2,386.5 475.7,389 477.8,390.5 480.4,393.8 
	484.5,393 488.7,393.4 492.3,389.4 496.2,387.4 499.1,384.8 510.3,385 510.5,387.6 516.3,395.6 516.8,398.9 521.4,403.4 
	524.3,403.7 524.6,405.2 527.6,406.7 526.9,411.4 527.9,416.3 523,420.2 520.9,422 516.8,424 520.9,428.1 528.1,431.2 521.1,431.9 
	516.2,431.2 514,432.5 515.2,435.4 515.7,438.2 515.3,440.4 514.2,440.8 513.1,439 510.5,438.5 509.1,440.7 507.6,440.4 
	506.4,438.8 504.6,437.8 502.2,439.8 500.9,441.5 497,442.5 495.4,440.8 495,437.8 492.7,438.5 491.2,437.5 489.4,437.9 
	486.2,435.9 482.5,435.9 477.6,439.2 474.3,438.4 471.1,440.6 468.3,440.6 463.8,436.7 462.6,440.2 459.8,443.5 459.1,446.2 
	459.8,448.1 462.2,450.4 461.9,452.3 459.6,452.5 456.8,450.5 453.5,452.1 450.1,452.1 448.3,450.7 443.9,450.7 438.4,448.9 
	427.7,448.9 426.3,447 421.6,447 421.6,439.4 422.4,432.4 418.8,430.6 413.5,431.7 410.6,437.2 408.7,445.4 405.8,441.8 
	403.4,441.8 401.7,440.6 393.5,442.5 390.5,438.6 388.9,446.5 382.3,446 377.1,446 375.2,447.9 374.9,454.4 374.4,458.7 
	372.8,460.8 370.2,460.3 368.5,462 369.3,464.8 376.8,470.8 382.8,476.5 386,477.8 390.1,478.8 392.4,481 397.1,485.6 400.4,487.4 
	404.9,492 410.5,496.9 410.3,501.5 416.9,502.2 422.9,501.7 429.3,498.2 428.6,505.4 427.9,508.4 425.7,511.3 428,513.6 427.3,516 
	428,519.6 426.3,521.7 424.8,527.5 423.5,530.7 423.2,535.9 423.2,540.2 422.4,542.5 420.1,544.6 416.3,545.2 413.7,546.6 
	413.2,549.7 414.3,551.8 414.5,553.3 413,554.7 410.7,555.7 409.5,559.7 408.2,561.3 409,563.3 409,565.5 407.3,568.4 407.1,572 
	405.6,575 406.6,578 401.7,582 401.2,586.6 399.4,589.4 398.4,592.7 397.9,595.5 396.2,597.6 397.7,600.1 398.8,602.5 397.4,605 
	398.3,607.3 399.2,610.3 399.6,613.2 401.5,615.4 400.4,617.7 398,619.7 396.5,621.6 392.6,623.9 389.1,627.9 386.6,626.7 
	386,635.4 388.9,637.1 391.9,637.9 391.5,642.2 392.5,645.1 391.8,647.8 385.5,647.3 383.2,646.6 380.9,644.7 377.7,645.5 
	376.1,647.3 376.6,650.8 377.7,653.6 376.5,655.6 376.5,658.4 377.1,661.7 376.6,664.4 374.2,665.5 372.4,667.2 370.9,669.9 
	372.1,673 373.6,674.4 375.8,674.9 381.3,674.2 386.6,674.9 393.5,674.9 399,673.7 406.5,673.4 414.7,672.4 422.3,674 431.1,677.3 
	433.9,676.4 437.4,674.8 439.4,674.7 443.6,677.5 447.5,681.6 453.4,686.3 455.7,687 465.4,696.6 467,697 468.4,695.6 469.4,691 
	471.5,690 473.3,690.1 475.6,689.6 476.6,688.4 477.4,686.7 480.3,682.1 487.8,674.6 496.4,670.1 498.4,667.5 498.1,662.9 
	498.8,656.2 498.1,648.9 504,627.6 505.7,624 507.5,622.3 511.6,620.8 513.7,619.4 514.3,617.6 513.6,613.7 512.4,609.1 
	512.8,604.9 518.5,596.7 523.9,591.7 526.9,586.2 531.3,583.4 534.4,582.5 540.4,583.2 543.8,582.7 545.9,581.3 558.3,581.7 
	558.3,122 553.3,127.9 550.3,138 546.4,147.4 546.8,153.6 545.2,157.8 542.1,164 537.3,167.7 531.6,167.4 532.7,162.5 532.7,153.3 
	529.3,147.5 526.1,140.7 513.8,131.8 508.9,131.3 502.6,126.2 "/>
<polygon id="polygon74" class="st17" points="24.6,199.6 23.7,200 23.7,201.1 25.2,207.4 23.3,206 21.3,206.5 19,206.6 17.6,205.8 
	16.4,204.4 15.5,204.4 14.5,205.9 14.5,207 13.6,208.1 12.7,209.8 12.7,211.6 13.8,213.4 16.2,215.2 17,217.8 19,219.6 21.5,220.3 
	20.8,222 19.7,223.2 19.8,224.3 20.9,224.8 22.6,224.6 25.1,224.1 27.5,223.7 30.3,224.1 33.2,223 35.1,221.7 36.9,222.1 
	37.9,221.8 39.8,220.2 41.1,219.2 42.2,219.2 43.4,220.4 44.3,221.8 47.2,223.6 50.1,222.9 53.1,222.5 55.5,223.1 56.5,222.6 
	57.7,220.9 59.3,220.9 62.6,223.5 64.2,222.7 65.6,221.4 66.8,219.4 67.8,218.7 69.2,218.7 70.6,219.2 75.6,221.9 77.4,223.2 
	78.6,225 80.1,226.3 82.2,226.3 84.7,226 86.3,226.6 88.7,227 92,226.6 94.3,227.3 97,216.6 94.3,216.8 92.5,216.3 89.6,213.8 
	89.1,211.1 86.3,209.4 83.6,207.6 80,207.6 77.7,208.3 73.9,211.1 71.7,211.4 67.4,209.7 64.7,211.4 61,211.4 58.7,211.7 
	57.1,211.7 56.2,210.8 55,206.6 53.4,204.1 51.7,203.7 49.6,203.9 47.1,204.9 45.1,205.9 42.9,206.8 41.2,206.8 39,206.4 
	37.2,204.7 30.9,204.7 30.2,203.3 29.6,201.5 28.4,200.2 "/>
<polygon id="polygon76" class="st17" points="28.2,677.8 31.2,678.2 37.2,673.5 38.6,672 36.5,670.9 35.4,667.8 36.3,663.1 
	31.9,661.7 30.5,659.5 29.4,655.1 27.8,651.5 26.7,649.9 26.1,646.3 24.2,644.6 23.2,642.4 22.7,640.6 20.5,639.2 18.6,638.1 
	17.6,637 18,635.4 19,634 18.6,632 17.7,629.2 17.2,626.3 16.1,624.4 18,622.2 17.7,621 16.9,620.5 15.9,620.3 14.9,620.6 
	14.8,619.9 14.9,618.9 13,617.6 12,617.9 11.3,618.8 10.3,619.5 9,619.7 7.8,620.4 6.5,620.1 5.7,619.2 5.1,618.1 3.9,618.5 
	0.8,618.9 0.8,688.4 2.2,687.8 6.8,685.1 13.6,683.8 20.4,681.5 24.6,679.8 "/>
<polygon id="polygon78" class="st17" points="58.4,458.1 57.5,459 57.5,460.4 58.4,460.8 59.6,461 62.6,461.6 64,461.3 64.9,461.3 
	66,461 66.5,462.5 66.9,463.8 67.3,464.4 68.5,464 69.6,463.9 70.6,462.8 71.9,460 72.5,458.8 74.6,458.6 76.1,458.5 78.1,458.9 
	79.2,459.1 80.5,459.1 80.5,457.7 80,456.6 77.3,455.3 75.6,454.9 73.7,455.1 72.3,454.3 71.8,454.1 71.4,455.6 71.2,456.6 
	70.9,457.5 68.5,455.4 67.9,454.5 66.9,455.8 66,457.6 66.5,458.4 65.3,458.6 63.3,458.1 61.5,458.2 60.4,458.1 "/>
<polygon id="polygon80" class="st17" points="69.8,408.1 69.7,408.5 69.4,409.5 68.4,409.7 67.5,410 67.1,411.2 65.8,412.9 
	64.6,413.3 63.4,412.6 64.7,414.3 66.1,415.3 67.3,415.4 68.2,415.3 69,414.6 70.3,414.6 70.7,414.7 71.4,415 72.3,415 73.1,414.4 
	73.6,413.8 74.6,413.8 75.3,413.4 77.4,413.5 79.6,411.5 78.2,408.8 77.1,407.5 76.2,407.7 75,408.3 73.8,408.8 73,408.8 72,408.3 
	70.5,407.8 "/>
<polygon id="polygon82" class="st17" points="43.7,339.3 43.3,341.1 42.2,340.8 40.6,339.5 39.1,339.1 38.2,338.4 36.2,338.7 
	35.4,340.2 35.3,341.8 35,343.5 35,345 35.6,346.1 36.6,346 38.3,345.1 39.2,344.3 40.8,343.2 41.9,342.9 43.7,342.9 45.5,343.3 
	47.5,344 48,344.8 48.5,345.1 49.2,344.8 50,344.2 50.5,343.9 51,344.2 51.5,344.2 52.1,343.8 52.3,342.7 51.8,341.9 50.6,341 
	49.1,340.2 47.9,339.6 46.3,339.5 "/>
<polygon id="polygon84" class="st17" points="129.7,532.2 128.5,532.1 128.5,534.7 128.7,536.7 130.6,536.7 132.6,535.9 
	133.4,535.6 133.7,534.3 134.3,533.7 134.3,532.8 133.1,532.4 132.1,532.4 131,532.3 "/>
<polyline id="polyline689" class="st18" points="262.9,627.7 272.5,591.6 281.4,564 300.5,423.8 300.3,415.5 299.9,411 299.2,407.9 
	279.5,352.7 278.8,349.3 279.4,346.2 308.7,292.8 313.7,280.4 331.9,202.3 332.2,200.4 332.5,192.5 332.9,190.6 333.8,189 
	334.4,188.4 339.1,184.6 341.6,182.3 342.8,180.3 343.6,178.5 344,176.6 345.3,166.9 346,165.3 347.2,163.4 348.5,162 352.5,158.7 
	353.8,157.1 354.8,155.1 356.7,147.2 357.8,145.2 359.1,143.8 360.1,143.1 362.1,142 365.9,139.9 368.8,137.6 370.2,136.1 
	371,134.2 371.7,130.8 372.9,127.6 377.2,119.5 378.5,114.4 381.9,106.3 383.2,101.1 383.1,96.7 382,88.4 382.4,79.5 381.2,75.5 
	381.2,73.4 382.1,71.5 391.6,60.4 "/>
<image style="display:none;overflow:visible;opacity:0.3;" width="252" height="212" xlink:href="D97B84AB5CDC70D.jpg"  transform="matrix(1.8623 0 0 1.8092 -197.0305 -42.6419)">
</image>
</svg>
